<svg xmlns="http://www.w3.org/2000/svg" xmlns:xlink="http://www.w3.org/1999/xlink" width="347" zoomAndPan="magnify" viewBox="0 0 260.25 116.249996" height="155" preserveAspectRatio="xMidYMid meet" version="1.2"><defs><clipPath id="1217754a09"><path d="M 0.460938 0 L 259.042969 0 L 259.042969 115.503906 L 0.460938 115.503906 Z M 0.460938 0 "/></clipPath><clipPath id="0eec7b9b4d"><path d="M 12 74.386719 L 13.945312 74.386719 L 13.945312 104 L 12 104 Z M 12 74.386719 "/></clipPath><clipPath id="d11791e54f"><path d="M 106.277344 30.175781 L 152.480469 30.175781 L 152.480469 76.378906 L 106.277344 76.378906 Z M 106.277344 30.175781 "/></clipPath><clipPath id="97a17ebaac"><path d="M 24.210938 15 L 51.457031 15 L 51.457031 29.199219 L 24.210938 29.199219 Z M 24.210938 15 "/></clipPath><clipPath id="e58e7f2d8d"><path d="M 34.0625 15.828125 C 33.734375 16.40625 33.367188 16.960938 32.949219 17.472656 C 32.1875 17.089844 31.382812 16.988281 30.550781 17.066406 C 29.308594 17.183594 28.269531 17.71875 27.441406 18.695312 C 27.136719 18.972656 26.933594 19.320312 26.757812 19.691406 C 26.605469 19.878906 26.535156 20.113281 26.460938 20.335938 C 26.011719 21.699219 26.023438 23.039062 26.6875 24.335938 C 26.835938 24.734375 27.054688 25.085938 27.351562 25.382812 C 27.914062 26.113281 28.632812 26.609375 29.488281 26.882812 C 30.460938 27.226562 31.4375 27.25 32.417969 26.914062 C 33.257812 26.683594 33.976562 26.230469 34.53125 25.550781 C 35.589844 24.253906 36.304688 22.71875 37.171875 21.289062 C 37.476562 20.78125 37.789062 20.277344 38.09375 19.765625 C 38.742188 18.679688 39.320312 17.546875 40.292969 16.710938 C 41.464844 15.695312 42.800781 15.117188 44.324219 15.050781 C 46.15625 14.96875 47.785156 15.546875 49.152344 16.820312 C 50.890625 18.4375 51.644531 20.488281 51.40625 22.898438 C 51.226562 24.691406 50.449219 26.199219 49.140625 27.386719 C 47.644531 28.75 45.890625 29.371094 43.917969 29.078125 C 42.050781 28.800781 40.4375 27.957031 39.265625 26.347656 C 39.625 25.71875 40.050781 25.136719 40.460938 24.542969 C 40.730469 25 41.089844 25.375 41.453125 25.746094 C 43.28125 27.609375 46.132812 27.621094 48 25.792969 C 50.039062 23.792969 50.011719 20.339844 47.953125 18.359375 C 45.96875 16.449219 42.652344 16.652344 40.957031 18.84375 C 40.558594 19.355469 40.265625 19.941406 39.917969 20.488281 C 38.5 22.714844 37.382812 25.144531 35.722656 27.203125 C 35.066406 27.777344 34.375 28.289062 33.574219 28.625 C 31.617188 29.441406 29.703125 29.285156 27.824219 28.359375 C 27.675781 28.257812 27.527344 28.15625 27.378906 28.054688 C 26.023438 27.152344 25.105469 25.894531 24.558594 24.332031 C 24.527344 24.207031 24.5 24.085938 24.46875 23.964844 C 23.550781 20.445312 25.320312 16.789062 28.597656 15.503906 C 30.457031 14.773438 32.285156 14.882812 34.0625 15.828125 "/></clipPath><clipPath id="6d37892206"><path d="M 36.542969 14.21875 L 52.296875 14.21875 L 52.296875 30 L 36.542969 30 Z M 36.542969 14.21875 "/></clipPath><clipPath id="526fd00628"><path d="M 39.265625 26.347656 C 40.4375 27.953125 42.050781 28.800781 43.917969 29.078125 C 45.890625 29.371094 47.644531 28.75 49.144531 27.386719 C 50.449219 26.199219 51.230469 24.691406 51.40625 22.898438 C 51.644531 20.488281 50.890625 18.4375 49.152344 16.820312 C 47.785156 15.546875 46.160156 14.96875 44.324219 15.050781 C 42.800781 15.117188 41.464844 15.695312 40.292969 16.707031 C 39.324219 17.546875 38.742188 18.679688 38.09375 19.765625 C 37.789062 20.277344 37.480469 20.78125 37.171875 21.289062 C 36.964844 21.144531 36.757812 20.996094 36.550781 20.851562 C 36.804688 20.210938 37.210938 19.660156 37.550781 19.070312 C 38.105469 18.117188 38.628906 17.136719 39.429688 16.367188 C 40.660156 15.1875 42.085938 14.464844 43.765625 14.277344 C 45.875 14.046875 47.765625 14.601562 49.40625 15.980469 C 51 17.316406 51.929688 19.058594 52.175781 21.191406 C 52.40625 23.179688 51.960938 24.996094 50.855469 26.617188 C 49.667969 28.367188 48.046875 29.476562 46.011719 29.847656 C 44.515625 30.121094 43.042969 29.96875 41.628906 29.339844 C 40.835938 28.988281 40.140625 28.492188 39.492188 27.914062 C 39.402344 27.832031 39.328125 27.726562 39.257812 27.628906 C 38.796875 26.976562 38.796875 26.976562 39.265625 26.347656 "/></clipPath><clipPath id="673110b854"><path d="M 35.703125 17 L 49.519531 17 L 49.519531 27.714844 L 35.703125 27.714844 Z M 35.703125 17 "/></clipPath><clipPath id="0a43af9d4b"><path d="M 35.722656 27.203125 C 37.382812 25.144531 38.503906 22.714844 39.917969 20.488281 C 40.265625 19.941406 40.558594 19.355469 40.957031 18.839844 C 42.65625 16.652344 45.96875 16.449219 47.957031 18.359375 C 50.015625 20.339844 50.042969 23.792969 48 25.792969 C 46.132812 27.621094 43.28125 27.609375 41.453125 25.746094 C 41.089844 25.375 40.730469 24.996094 40.460938 24.542969 C 40.863281 23.839844 40.863281 23.84375 41.328125 24.476562 C 42.1875 25.65625 43.308594 26.355469 44.75 26.328125 C 45.855469 26.308594 46.789062 25.828125 47.578125 25.003906 C 48.75 23.789062 49.066406 21.769531 48.300781 20.214844 C 47.015625 17.601562 43.628906 17.0625 41.726562 19.175781 C 41.136719 19.828125 40.765625 20.636719 40.316406 21.386719 C 39.308594 23.070312 38.320312 24.761719 37.308594 26.4375 C 37.039062 26.882812 36.746094 27.324219 36.339844 27.65625 C 36.132812 27.503906 35.929688 27.355469 35.722656 27.203125 "/></clipPath><clipPath id="c6b731aa5b"><path d="M 23.375 14.15625 L 34.476562 14.15625 L 34.476562 24.808594 L 23.375 24.808594 Z M 23.375 14.15625 "/></clipPath><clipPath id="ab82136486"><path d="M 34.0625 15.828125 C 32.285156 14.882812 30.453125 14.773438 28.597656 15.503906 C 25.320312 16.789062 23.550781 20.445312 24.472656 23.964844 C 24.503906 24.085938 24.527344 24.207031 24.558594 24.332031 C 24.300781 24.402344 24.1875 24.722656 23.902344 24.746094 C 23.40625 23.492188 23.3125 22.191406 23.527344 20.875 C 24.082031 17.453125 26.429688 14.96875 29.699219 14.328125 C 31.226562 14.03125 32.699219 14.25 34.097656 14.964844 C 34.539062 15.191406 34.546875 15.226562 34.25 15.632812 C 34.195312 15.707031 34.125 15.765625 34.0625 15.828125 "/></clipPath><clipPath id="ec5ecc5c73"><path d="M 27.441406 27.195312 L 36.351562 27.195312 L 36.351562 30 L 27.441406 30 Z M 27.441406 27.195312 "/></clipPath><clipPath id="900856b0e0"><path d="M 35.722656 27.203125 C 35.925781 27.355469 36.132812 27.507812 36.335938 27.660156 C 35.460938 28.589844 34.429688 29.261719 33.230469 29.636719 C 31.347656 30.226562 29.515625 30.078125 27.738281 29.210938 C 27.648438 29.167969 27.550781 29.136719 27.488281 29.046875 C 27.53125 28.78125 27.808594 28.640625 27.824219 28.359375 C 29.703125 29.285156 31.617188 29.445312 33.574219 28.625 C 34.375 28.289062 35.066406 27.777344 35.722656 27.207031 "/></clipPath><clipPath id="23d1bf0548"><path d="M 32.28125 20.804688 L 37.1875 20.804688 L 37.1875 26.9375 L 32.28125 26.9375 Z M 32.28125 20.804688 "/></clipPath><clipPath id="3ab881d618"><path d="M 36.546875 20.851562 C 36.753906 20.996094 36.964844 21.144531 37.171875 21.289062 C 36.304688 22.71875 35.589844 24.253906 34.53125 25.550781 C 33.976562 26.230469 33.257812 26.683594 32.417969 26.914062 C 32.394531 26.648438 32.460938 26.378906 32.34375 26.125 C 33.179688 25.75 33.90625 25.21875 34.402344 24.40625 C 35.0625 23.320312 35.699219 22.21875 36.351562 21.125 C 36.410156 21.027344 36.484375 20.941406 36.546875 20.851562 "/></clipPath><clipPath id="b60aef0b0e"><path d="M 23.890625 24.292969 L 27.828125 24.292969 L 27.828125 29.070312 L 23.890625 29.070312 Z M 23.890625 24.292969 "/></clipPath><clipPath id="52c7c62ca2"><path d="M 27.824219 28.359375 C 27.808594 28.640625 27.53125 28.78125 27.488281 29.046875 C 27.042969 28.882812 26.671875 28.585938 26.316406 28.28125 C 25.265625 27.390625 24.4375 26.316406 23.953125 24.980469 C 23.925781 24.90625 23.917969 24.824219 23.902344 24.746094 C 24.1875 24.722656 24.300781 24.402344 24.558594 24.332031 C 25.105469 25.894531 26.027344 27.15625 27.378906 28.054688 C 27.527344 28.15625 27.675781 28.257812 27.824219 28.359375 "/></clipPath><clipPath id="a3b97d9434"><path d="M 27.375 17.058594 L 30.605469 17.058594 L 30.605469 19.644531 L 27.375 19.644531 Z M 27.375 17.058594 "/></clipPath><clipPath id="2ecd6f6a8f"><path d="M 27.441406 18.695312 C 28.269531 17.71875 29.308594 17.183594 30.550781 17.066406 C 30.550781 17.339844 30.550781 17.609375 30.550781 17.882812 C 29.378906 18.074219 28.425781 18.648438 27.695312 19.621094 C 27.511719 19.53125 27.570312 19.355469 27.558594 19.203125 C 27.546875 19.027344 27.597656 18.835938 27.441406 18.695312 "/></clipPath><clipPath id="e3b080b65e"><path d="M 29.441406 26.035156 L 32.476562 26.035156 L 32.476562 27.195312 L 29.441406 27.195312 Z M 29.441406 26.035156 "/></clipPath><clipPath id="fbd40db10b"><path d="M 32.34375 26.125 C 32.460938 26.378906 32.394531 26.648438 32.417969 26.914062 C 31.4375 27.25 30.460938 27.226562 29.488281 26.882812 C 29.488281 26.609375 29.488281 26.335938 29.488281 26.066406 C 29.832031 26.078125 30.144531 26.234375 30.484375 26.285156 C 31.121094 26.378906 31.726562 26.238281 32.34375 26.125 "/></clipPath><clipPath id="920e6f141d"><path d="M 26.148438 19.644531 L 26.988281 19.644531 L 26.988281 24.355469 L 26.148438 24.355469 Z M 26.148438 19.644531 "/></clipPath><clipPath id="67bdec9118"><path d="M 26.6875 24.335938 C 26.023438 23.039062 26.011719 21.699219 26.460938 20.335938 C 26.535156 20.113281 26.605469 19.878906 26.757812 19.691406 C 26.894531 20.03125 26.804688 20.390625 26.824219 20.742188 C 26.835938 20.960938 26.820312 21.179688 26.964844 21.363281 C 26.960938 21.730469 26.957031 22.097656 26.953125 22.464844 C 26.796875 22.542969 26.832031 22.695312 26.828125 22.828125 C 26.824219 23.195312 26.828125 23.5625 26.828125 23.933594 C 26.828125 24.082031 26.832031 24.238281 26.6875 24.335938 "/></clipPath><clipPath id="a6e633fe23"><path d="M 27.3125 24.292969 L 29.507812 24.292969 L 29.507812 26.9375 L 27.3125 26.9375 Z M 27.3125 24.292969 "/></clipPath><clipPath id="9c278c7754"><path d="M 29.488281 26.066406 C 29.488281 26.335938 29.488281 26.609375 29.488281 26.882812 C 28.632812 26.609375 27.914062 26.113281 27.351562 25.382812 C 27.429688 25.160156 27.425781 24.933594 27.429688 24.699219 C 27.429688 24.566406 27.394531 24.414062 27.550781 24.335938 C 27.941406 24.984375 28.46875 25.480469 29.117188 25.839844 C 29.242188 25.910156 29.363281 25.988281 29.488281 26.0625 "/></clipPath><clipPath id="b632e4b2d4"><path d="M 30.539062 17 L 32.992188 17 L 32.992188 18.15625 L 30.539062 18.15625 Z M 30.539062 17 "/></clipPath><clipPath id="35bbe03542"><path d="M 30.550781 17.882812 C 30.550781 17.609375 30.550781 17.339844 30.550781 17.066406 C 31.382812 16.988281 32.1875 17.085938 32.949219 17.472656 C 32.925781 17.539062 32.910156 17.605469 32.878906 17.664062 C 32.617188 18.164062 32.609375 18.179688 32.09375 18.019531 C 31.582031 17.859375 31.066406 17.890625 30.550781 17.882812 "/></clipPath><clipPath id="9689e153dc"><path d="M 26.730469 18.675781 L 27.699219 18.675781 L 27.699219 21.386719 L 26.730469 21.386719 Z M 26.730469 18.675781 "/></clipPath><clipPath id="2a2ee79454"><path d="M 26.960938 21.363281 C 26.820312 21.179688 26.832031 20.960938 26.824219 20.742188 C 26.804688 20.390625 26.894531 20.03125 26.757812 19.691406 C 26.933594 19.316406 27.136719 18.972656 27.4375 18.695312 C 27.597656 18.835938 27.546875 19.027344 27.558594 19.203125 C 27.570312 19.355469 27.511719 19.53125 27.695312 19.621094 C 27.355469 20.160156 27.121094 20.742188 26.960938 21.359375 "/></clipPath><clipPath id="7f746c9cb3"><path d="M 26.664062 22.417969 L 27.570312 22.417969 L 27.570312 25.390625 L 26.664062 25.390625 Z M 26.664062 22.417969 "/></clipPath><clipPath id="e0eb8b1812"><path d="M 27.550781 24.335938 C 27.394531 24.414062 27.429688 24.566406 27.429688 24.699219 C 27.429688 24.933594 27.429688 25.164062 27.351562 25.382812 C 27.054688 25.085938 26.835938 24.734375 26.6875 24.335938 C 26.832031 24.238281 26.828125 24.082031 26.828125 23.933594 C 26.828125 23.5625 26.824219 23.195312 26.828125 22.828125 C 26.832031 22.691406 26.796875 22.542969 26.953125 22.464844 C 26.964844 23.152344 27.238281 23.753906 27.550781 24.335938 "/></clipPath><clipPath id="26eee7f09f"><path d="M 46.550781 24.292969 L 46.679688 24.292969 L 46.679688 24.421875 L 46.550781 24.421875 Z M 46.550781 24.292969 "/></clipPath><clipPath id="4c5ed9bef4"><path d="M 46.613281 24.382812 C 46.632812 24.367188 46.652344 24.351562 46.671875 24.332031 C 46.652344 24.351562 46.632812 24.367188 46.613281 24.382812 "/></clipPath></defs><g id="6b24bb11c9"><g clip-rule="nonzero" clip-path="url(#1217754a09)"><path style=" stroke:none;fill-rule:nonzero;fill:#ffffff;fill-opacity:1;" d="M 0.460938 0 L 259.042969 0 L 259.042969 115.503906 L 0.460938 115.503906 Z M 0.460938 0 "/><path style=" stroke:none;fill-rule:nonzero;fill:#0070b2;fill-opacity:1;" d="M 0.460938 0 L 259.042969 0 L 259.042969 115.503906 L 0.460938 115.503906 Z M 0.460938 0 "/></g><g clip-rule="nonzero" clip-path="url(#0eec7b9b4d)"><path style=" stroke:none;fill-rule:nonzero;fill:#84b5f2;fill-opacity:1;" d="M 13.945312 102.699219 L 13.945312 75.640625 C 13.945312 75.105469 13.511719 74.671875 12.976562 74.671875 C 12.445312 74.671875 12.011719 75.105469 12.011719 75.640625 L 12.011719 102.699219 C 12.011719 103.234375 12.445312 103.664062 12.976562 103.664062 C 13.511719 103.664062 13.945312 103.234375 13.945312 102.699219 Z M 13.945312 102.699219 "/></g><path style=" stroke:none;fill-rule:nonzero;fill:#84b5f2;fill-opacity:1;" d="M 132.585938 36.292969 L 132.585938 49.636719 L 139.191406 49.636719 C 139.785156 49.636719 140.273438 50.125 140.273438 50.71875 C 140.273438 50.9375 140.191406 51.152344 140.085938 51.316406 L 128.851562 70.777344 L 128.851562 70.804688 C 128.554688 71.316406 127.878906 71.480469 127.363281 71.183594 C 127.011719 70.992188 126.820312 70.613281 126.820312 70.234375 L 126.820312 57.511719 L 119.566406 57.511719 C 118.972656 57.511719 118.484375 57.027344 118.484375 56.429688 C 118.484375 56.214844 118.539062 55.996094 118.675781 55.835938 L 130.558594 35.753906 C 130.882812 35.238281 131.53125 35.046875 132.046875 35.375 C 132.398438 35.5625 132.585938 35.941406 132.585938 36.292969 Z M 130.421875 50.71875 L 130.421875 40.246094 L 121.464844 55.347656 L 127.90625 55.347656 C 128.5 55.347656 128.988281 55.835938 128.988281 56.429688 L 128.988281 66.203125 L 137.324219 51.800781 L 131.503906 51.800781 C 130.910156 51.800781 130.421875 51.316406 130.421875 50.71875 Z M 130.421875 50.71875 "/><g clip-rule="nonzero" clip-path="url(#d11791e54f)"><path style=" stroke:none;fill-rule:nonzero;fill:#84b5f2;fill-opacity:1;" d="M 129.367188 30.175781 C 135.753906 30.175781 141.519531 32.773438 145.714844 36.941406 C 149.882812 41.113281 152.480469 46.902344 152.480469 53.265625 C 152.480469 59.652344 149.882812 65.417969 145.714844 69.613281 C 141.519531 73.78125 135.753906 76.378906 129.367188 76.378906 C 123.003906 76.378906 117.214844 73.78125 113.046875 69.613281 C 108.878906 65.417969 106.277344 59.652344 106.277344 53.265625 C 106.277344 46.902344 108.878906 41.113281 113.046875 36.941406 C 117.214844 32.773438 123.003906 30.175781 129.367188 30.175781 Z M 144.171875 38.484375 C 140.382812 34.695312 135.160156 32.34375 129.367188 32.34375 C 123.601562 32.34375 118.351562 34.695312 114.589844 38.484375 C 110.800781 42.25 108.445312 47.5 108.445312 53.265625 C 108.445312 59.054688 110.800781 64.28125 114.589844 68.070312 C 118.351562 71.859375 123.601562 74.214844 129.367188 74.214844 C 135.160156 74.214844 140.382812 71.859375 144.171875 68.070312 C 147.960938 64.28125 150.316406 59.054688 150.316406 53.265625 C 150.316406 47.5 147.960938 42.25 144.171875 38.484375 Z M 144.171875 38.484375 "/></g><g style="fill:#f4e7e7;fill-opacity:1;"><g transform="translate(16.234777, 84.950133)"><path style="stroke:none" d="M 7.078125 -0.609375 C 6.816406 -0.429688 6.488281 -0.269531 6.09375 -0.125 C 5.695312 0.0195312 5.265625 0.09375 4.796875 0.09375 C 3.972656 0.09375 3.242188 -0.0859375 2.609375 -0.453125 C 1.984375 -0.816406 1.5 -1.304688 1.15625 -1.921875 C 0.820312 -2.546875 0.65625 -3.226562 0.65625 -3.96875 C 0.65625 -4.769531 0.828125 -5.488281 1.171875 -6.125 C 1.515625 -6.757812 1.988281 -7.253906 2.59375 -7.609375 C 3.195312 -7.972656 3.882812 -8.15625 4.65625 -8.15625 C 5.101562 -8.15625 5.523438 -8.09375 5.921875 -7.96875 C 6.316406 -7.851562 6.671875 -7.703125 6.984375 -7.515625 L 6.546875 -6.5 C 5.929688 -6.914062 5.3125 -7.125 4.6875 -7.125 C 4.164062 -7.125 3.679688 -6.984375 3.234375 -6.703125 C 2.796875 -6.429688 2.441406 -6.054688 2.171875 -5.578125 C 1.910156 -5.109375 1.78125 -4.59375 1.78125 -4.03125 C 1.78125 -3.445312 1.898438 -2.921875 2.140625 -2.453125 C 2.390625 -1.984375 2.738281 -1.613281 3.1875 -1.34375 C 3.632812 -1.082031 4.148438 -0.953125 4.734375 -0.953125 C 5.460938 -0.953125 6.09375 -1.160156 6.625 -1.578125 Z M 7.078125 -0.609375 "/></g></g><g style="fill:#f4e7e7;fill-opacity:1;"><g transform="translate(23.976005, 84.950133)"><path style="stroke:none" d="M 5.390625 -2.125 L 2.28125 -2.125 L 1.421875 0 L 0.359375 0 L 3.875 -8.40625 L 3.953125 -8.40625 L 7.46875 0 L 6.21875 0 Z M 5.015625 -3.0625 L 3.875 -6 L 2.671875 -3.0625 Z M 5.015625 -3.0625 "/></g></g><g style="fill:#f4e7e7;fill-opacity:1;"><g transform="translate(31.795316, 84.950133)"><path style="stroke:none" d="M 2.25 -8.0625 L 2.25 -1.046875 L 6.34375 -1.046875 L 6.34375 0 L 1.15625 0 L 1.15625 -8.0625 Z M 2.25 -8.0625 "/></g></g><g style="fill:#f4e7e7;fill-opacity:1;"><g transform="translate(38.733418, 84.950133)"><path style="stroke:none" d="M 7.078125 -0.609375 C 6.816406 -0.429688 6.488281 -0.269531 6.09375 -0.125 C 5.695312 0.0195312 5.265625 0.09375 4.796875 0.09375 C 3.972656 0.09375 3.242188 -0.0859375 2.609375 -0.453125 C 1.984375 -0.816406 1.5 -1.304688 1.15625 -1.921875 C 0.820312 -2.546875 0.65625 -3.226562 0.65625 -3.96875 C 0.65625 -4.769531 0.828125 -5.488281 1.171875 -6.125 C 1.515625 -6.757812 1.988281 -7.253906 2.59375 -7.609375 C 3.195312 -7.972656 3.882812 -8.15625 4.65625 -8.15625 C 5.101562 -8.15625 5.523438 -8.09375 5.921875 -7.96875 C 6.316406 -7.851562 6.671875 -7.703125 6.984375 -7.515625 L 6.546875 -6.5 C 5.929688 -6.914062 5.3125 -7.125 4.6875 -7.125 C 4.164062 -7.125 3.679688 -6.984375 3.234375 -6.703125 C 2.796875 -6.429688 2.441406 -6.054688 2.171875 -5.578125 C 1.910156 -5.109375 1.78125 -4.59375 1.78125 -4.03125 C 1.78125 -3.445312 1.898438 -2.921875 2.140625 -2.453125 C 2.390625 -1.984375 2.738281 -1.613281 3.1875 -1.34375 C 3.632812 -1.082031 4.148438 -0.953125 4.734375 -0.953125 C 5.460938 -0.953125 6.09375 -1.160156 6.625 -1.578125 Z M 7.078125 -0.609375 "/></g></g><g style="fill:#f4e7e7;fill-opacity:1;"><g transform="translate(46.474646, 84.950133)"><path style="stroke:none" d="M 2.140625 -2.859375 C 2.140625 -2.503906 2.222656 -2.179688 2.390625 -1.890625 C 2.566406 -1.609375 2.800781 -1.378906 3.09375 -1.203125 C 3.382812 -1.035156 3.710938 -0.953125 4.078125 -0.953125 C 4.441406 -0.953125 4.773438 -1.035156 5.078125 -1.203125 C 5.378906 -1.367188 5.613281 -1.597656 5.78125 -1.890625 C 5.957031 -2.179688 6.046875 -2.503906 6.046875 -2.859375 L 6.046875 -8.0625 L 7.109375 -8.0625 L 7.109375 -2.828125 C 7.109375 -2.253906 6.972656 -1.742188 6.703125 -1.296875 C 6.429688 -0.859375 6.066406 -0.515625 5.609375 -0.265625 C 5.148438 -0.0234375 4.640625 0.09375 4.078125 0.09375 C 3.515625 0.09375 3.003906 -0.0234375 2.546875 -0.265625 C 2.085938 -0.515625 1.722656 -0.859375 1.453125 -1.296875 C 1.191406 -1.742188 1.0625 -2.253906 1.0625 -2.828125 L 1.0625 -8.0625 L 2.140625 -8.0625 Z M 2.140625 -2.859375 "/></g></g><g style="fill:#f4e7e7;fill-opacity:1;"><g transform="translate(54.639752, 84.950133)"><path style="stroke:none" d="M 2.25 -8.0625 L 2.25 -1.046875 L 6.34375 -1.046875 L 6.34375 0 L 1.15625 0 L 1.15625 -8.0625 Z M 2.25 -8.0625 "/></g></g><g style="fill:#f4e7e7;fill-opacity:1;"><g transform="translate(61.577854, 84.950133)"><path style="stroke:none" d="M 5.390625 -2.125 L 2.28125 -2.125 L 1.421875 0 L 0.359375 0 L 3.875 -8.40625 L 3.953125 -8.40625 L 7.46875 0 L 6.21875 0 Z M 5.015625 -3.0625 L 3.875 -6 L 2.671875 -3.0625 Z M 5.015625 -3.0625 "/></g></g><g style="fill:#f4e7e7;fill-opacity:1;"><g transform="translate(69.397165, 84.950133)"><path style="stroke:none" d="M 1.15625 -8.0625 L 3.375 -8.0625 C 4.375 -8.0625 5.203125 -7.863281 5.859375 -7.46875 C 6.515625 -7.070312 6.992188 -6.554688 7.296875 -5.921875 C 7.597656 -5.296875 7.75 -4.632812 7.75 -3.9375 C 7.75 -3.15625 7.566406 -2.460938 7.203125 -1.859375 C 6.835938 -1.265625 6.347656 -0.804688 5.734375 -0.484375 C 5.128906 -0.160156 4.472656 0 3.765625 0 L 1.15625 0 Z M 3.546875 -1.046875 C 4.140625 -1.046875 4.671875 -1.160156 5.140625 -1.390625 C 5.609375 -1.628906 5.972656 -1.972656 6.234375 -2.421875 C 6.503906 -2.867188 6.640625 -3.398438 6.640625 -4.015625 C 6.640625 -4.648438 6.5 -5.191406 6.21875 -5.640625 C 5.945312 -6.097656 5.582031 -6.441406 5.125 -6.671875 C 4.664062 -6.910156 4.171875 -7.03125 3.640625 -7.03125 L 2.25 -7.03125 L 2.25 -1.046875 Z M 3.546875 -1.046875 "/></g></g><g style="fill:#f4e7e7;fill-opacity:1;"><g transform="translate(77.807663, 84.950133)"><path style="stroke:none" d="M 0.65625 -4.03125 C 0.65625 -4.757812 0.84375 -5.441406 1.21875 -6.078125 C 1.59375 -6.710938 2.09375 -7.21875 2.71875 -7.59375 C 3.34375 -7.96875 4.03125 -8.15625 4.78125 -8.15625 C 5.507812 -8.15625 6.191406 -7.96875 6.828125 -7.59375 C 7.460938 -7.21875 7.96875 -6.710938 8.34375 -6.078125 C 8.71875 -5.441406 8.90625 -4.757812 8.90625 -4.03125 C 8.90625 -3.28125 8.71875 -2.585938 8.34375 -1.953125 C 7.96875 -1.328125 7.460938 -0.828125 6.828125 -0.453125 C 6.191406 -0.0859375 5.507812 0.09375 4.78125 0.09375 C 4.03125 0.09375 3.335938 -0.0859375 2.703125 -0.453125 C 2.078125 -0.816406 1.578125 -1.3125 1.203125 -1.9375 C 0.835938 -2.570312 0.65625 -3.269531 0.65625 -4.03125 Z M 1.78125 -4.015625 C 1.78125 -3.460938 1.910156 -2.953125 2.171875 -2.484375 C 2.441406 -2.015625 2.804688 -1.640625 3.265625 -1.359375 C 3.734375 -1.085938 4.242188 -0.953125 4.796875 -0.953125 C 5.347656 -0.953125 5.851562 -1.085938 6.3125 -1.359375 C 6.769531 -1.640625 7.128906 -2.015625 7.390625 -2.484375 C 7.648438 -2.953125 7.78125 -3.46875 7.78125 -4.03125 C 7.78125 -4.582031 7.644531 -5.097656 7.375 -5.578125 C 7.113281 -6.054688 6.75 -6.429688 6.28125 -6.703125 C 5.820312 -6.984375 5.320312 -7.125 4.78125 -7.125 C 4.226562 -7.125 3.71875 -6.984375 3.25 -6.703125 C 2.789062 -6.421875 2.429688 -6.039062 2.171875 -5.5625 C 1.910156 -5.09375 1.78125 -4.578125 1.78125 -4.015625 Z M 1.78125 -4.015625 "/></g></g><g style="fill:#f4e7e7;fill-opacity:1;"><g transform="translate(87.367082, 84.950133)"><path style="stroke:none" d="M 5.59375 0 L 3.703125 -2.984375 C 3.640625 -2.972656 3.550781 -2.96875 3.4375 -2.96875 L 2.25 -2.96875 L 2.25 0 L 1.15625 0 L 1.15625 -8.0625 L 3.3125 -8.0625 C 3.863281 -8.0625 4.351562 -7.960938 4.78125 -7.765625 C 5.21875 -7.578125 5.554688 -7.296875 5.796875 -6.921875 C 6.046875 -6.546875 6.171875 -6.09375 6.171875 -5.5625 C 6.171875 -5.0625 6.0625 -4.601562 5.84375 -4.1875 C 5.625 -3.769531 5.285156 -3.457031 4.828125 -3.25 L 6.859375 0 Z M 3.40625 -4.015625 C 3.988281 -4.015625 4.40625 -4.164062 4.65625 -4.46875 C 4.914062 -4.78125 5.046875 -5.128906 5.046875 -5.515625 C 5.046875 -5.753906 4.992188 -5.988281 4.890625 -6.21875 C 4.785156 -6.457031 4.613281 -6.648438 4.375 -6.796875 C 4.144531 -6.953125 3.847656 -7.03125 3.484375 -7.03125 L 2.25 -7.03125 L 2.25 -4.015625 Z M 3.40625 -4.015625 "/></g></g><g style="fill:#f4e7e7;fill-opacity:1;"><g transform="translate(94.729062, 84.950133)"><path style="stroke:none" d="M 5.390625 -2.125 L 2.28125 -2.125 L 1.421875 0 L 0.359375 0 L 3.875 -8.40625 L 3.953125 -8.40625 L 7.46875 0 L 6.21875 0 Z M 5.015625 -3.0625 L 3.875 -6 L 2.671875 -3.0625 Z M 5.015625 -3.0625 "/></g></g><g style="fill:#f4e7e7;fill-opacity:1;"><g transform="translate(102.548999, 84.950133)"><path style="stroke:none" d=""/></g></g><g style="fill:#f4e7e7;fill-opacity:1;"><g transform="translate(16.234777, 99.853978)"><path style="stroke:none" d="M 1.15625 -8.0625 L 3.375 -8.0625 C 4.375 -8.0625 5.203125 -7.863281 5.859375 -7.46875 C 6.515625 -7.070312 6.992188 -6.554688 7.296875 -5.921875 C 7.597656 -5.296875 7.75 -4.632812 7.75 -3.9375 C 7.75 -3.15625 7.566406 -2.460938 7.203125 -1.859375 C 6.835938 -1.265625 6.347656 -0.804688 5.734375 -0.484375 C 5.128906 -0.160156 4.472656 0 3.765625 0 L 1.15625 0 Z M 3.546875 -1.046875 C 4.140625 -1.046875 4.671875 -1.160156 5.140625 -1.390625 C 5.609375 -1.628906 5.972656 -1.972656 6.234375 -2.421875 C 6.503906 -2.867188 6.640625 -3.398438 6.640625 -4.015625 C 6.640625 -4.648438 6.5 -5.191406 6.21875 -5.640625 C 5.945312 -6.097656 5.582031 -6.441406 5.125 -6.671875 C 4.664062 -6.910156 4.171875 -7.03125 3.640625 -7.03125 L 2.25 -7.03125 L 2.25 -1.046875 Z M 3.546875 -1.046875 "/></g></g><g style="fill:#f4e7e7;fill-opacity:1;"><g transform="translate(24.645275, 99.853978)"><path style="stroke:none" d="M 6.40625 -8.0625 L 6.40625 -7.03125 L 2.25 -7.03125 L 2.25 -4.578125 L 5.953125 -4.578125 L 5.953125 -3.53125 L 2.25 -3.53125 L 2.25 -1.046875 L 6.5625 -1.046875 L 6.5625 0 L 1.15625 0 L 1.15625 -8.0625 Z M 6.40625 -8.0625 "/></g></g><g style="fill:#f4e7e7;fill-opacity:1;"><g transform="translate(31.929172, 99.853978)"><path style="stroke:none" d=""/></g></g><g style="fill:#f4e7e7;fill-opacity:1;"><g transform="translate(35.453997, 99.853978)"><path style="stroke:none" d="M 6.40625 -8.0625 L 6.40625 -7.03125 L 2.25 -7.03125 L 2.25 -4.578125 L 5.953125 -4.578125 L 5.953125 -3.53125 L 2.25 -3.53125 L 2.25 -1.046875 L 6.5625 -1.046875 L 6.5625 0 L 1.15625 0 L 1.15625 -8.0625 Z M 6.40625 -8.0625 "/></g></g><g style="fill:#f4e7e7;fill-opacity:1;"><g transform="translate(42.737894, 99.853978)"><path style="stroke:none" d="M 8.1875 -8.0625 L 8.1875 0.265625 L 8.15625 0.265625 L 2.234375 -5.75 L 2.25 0 L 1.15625 0 L 1.15625 -8.3125 L 1.21875 -8.3125 L 7.125 -2.234375 L 7.109375 -8.0625 Z M 8.1875 -8.0625 "/></g></g><g style="fill:#f4e7e7;fill-opacity:1;"><g transform="translate(52.085374, 99.853978)"><path style="stroke:none" d="M 6.40625 -8.0625 L 6.40625 -7.03125 L 2.25 -7.03125 L 2.25 -4.578125 L 5.953125 -4.578125 L 5.953125 -3.53125 L 2.25 -3.53125 L 2.25 -1.046875 L 6.5625 -1.046875 L 6.5625 0 L 1.15625 0 L 1.15625 -8.0625 Z M 6.40625 -8.0625 "/></g></g><g style="fill:#f4e7e7;fill-opacity:1;"><g transform="translate(59.369272, 99.853978)"><path style="stroke:none" d="M 5.59375 0 L 3.703125 -2.984375 C 3.640625 -2.972656 3.550781 -2.96875 3.4375 -2.96875 L 2.25 -2.96875 L 2.25 0 L 1.15625 0 L 1.15625 -8.0625 L 3.3125 -8.0625 C 3.863281 -8.0625 4.351562 -7.960938 4.78125 -7.765625 C 5.21875 -7.578125 5.554688 -7.296875 5.796875 -6.921875 C 6.046875 -6.546875 6.171875 -6.09375 6.171875 -5.5625 C 6.171875 -5.0625 6.0625 -4.601562 5.84375 -4.1875 C 5.625 -3.769531 5.285156 -3.457031 4.828125 -3.25 L 6.859375 0 Z M 3.40625 -4.015625 C 3.988281 -4.015625 4.40625 -4.164062 4.65625 -4.46875 C 4.914062 -4.78125 5.046875 -5.128906 5.046875 -5.515625 C 5.046875 -5.753906 4.992188 -5.988281 4.890625 -6.21875 C 4.785156 -6.457031 4.613281 -6.648438 4.375 -6.796875 C 4.144531 -6.953125 3.847656 -7.03125 3.484375 -7.03125 L 2.25 -7.03125 L 2.25 -4.015625 Z M 3.40625 -4.015625 "/></g></g><g style="fill:#f4e7e7;fill-opacity:1;"><g transform="translate(66.731252, 99.853978)"><path style="stroke:none" d="M 7.484375 -0.6875 C 7.242188 -0.5 6.859375 -0.320312 6.328125 -0.15625 C 5.804688 0.0078125 5.320312 0.09375 4.875 0.09375 C 4.03125 0.09375 3.289062 -0.078125 2.65625 -0.421875 C 2.019531 -0.773438 1.523438 -1.25 1.171875 -1.84375 C 0.828125 -2.445312 0.65625 -3.125 0.65625 -3.875 C 0.65625 -4.757812 0.84375 -5.519531 1.21875 -6.15625 C 1.59375 -6.800781 2.09375 -7.296875 2.71875 -7.640625 C 3.351562 -7.984375 4.046875 -8.15625 4.796875 -8.15625 C 5.253906 -8.15625 5.679688 -8.097656 6.078125 -7.984375 C 6.484375 -7.878906 6.84375 -7.738281 7.15625 -7.5625 L 6.8125 -6.578125 C 6.570312 -6.703125 6.269531 -6.816406 5.90625 -6.921875 C 5.539062 -7.023438 5.21875 -7.078125 4.9375 -7.078125 C 4.3125 -7.078125 3.757812 -6.945312 3.28125 -6.6875 C 2.800781 -6.4375 2.429688 -6.078125 2.171875 -5.609375 C 1.910156 -5.140625 1.78125 -4.59375 1.78125 -3.96875 C 1.78125 -3.382812 1.910156 -2.863281 2.171875 -2.40625 C 2.429688 -1.957031 2.796875 -1.609375 3.265625 -1.359375 C 3.742188 -1.117188 4.285156 -1 4.890625 -1 C 5.179688 -1 5.457031 -1.023438 5.71875 -1.078125 C 5.988281 -1.128906 6.210938 -1.207031 6.390625 -1.3125 L 6.390625 -2.90625 L 4.78125 -2.90625 L 4.78125 -3.953125 L 7.484375 -3.953125 Z M 7.484375 -0.6875 "/></g></g><g style="fill:#f4e7e7;fill-opacity:1;"><g transform="translate(75.11944, 99.853978)"><path style="stroke:none" d="M 2.25 -8.0625 L 2.25 0 L 1.15625 0 L 1.15625 -8.0625 Z M 2.25 -8.0625 "/></g></g><g style="fill:#f4e7e7;fill-opacity:1;"><g transform="translate(78.521563, 99.853978)"><path style="stroke:none" d="M 5.390625 -2.125 L 2.28125 -2.125 L 1.421875 0 L 0.359375 0 L 3.875 -8.40625 L 3.953125 -8.40625 L 7.46875 0 L 6.21875 0 Z M 5.015625 -3.0625 L 3.875 -6 L 2.671875 -3.0625 Z M 5.015625 -3.0625 "/></g></g><g clip-rule="nonzero" clip-path="url(#97a17ebaac)"><g clip-rule="nonzero" clip-path="url(#e58e7f2d8d)"><path style=" stroke:none;fill-rule:nonzero;fill:#0b2d11;fill-opacity:1;" d="M 23.050781 13.832031 L 52.617188 13.832031 L 52.617188 30.359375 L 23.050781 30.359375 Z M 23.050781 13.832031 "/></g></g><g clip-rule="nonzero" clip-path="url(#6d37892206)"><g clip-rule="nonzero" clip-path="url(#526fd00628)"><path style=" stroke:none;fill-rule:nonzero;fill:#ffcb28;fill-opacity:1;" d="M 23.050781 13.832031 L 52.617188 13.832031 L 52.617188 30.359375 L 23.050781 30.359375 Z M 23.050781 13.832031 "/></g></g><g clip-rule="nonzero" clip-path="url(#673110b854)"><g clip-rule="nonzero" clip-path="url(#0a43af9d4b)"><path style=" stroke:none;fill-rule:nonzero;fill:#ffcb28;fill-opacity:1;" d="M 23.050781 13.832031 L 52.617188 13.832031 L 52.617188 30.359375 L 23.050781 30.359375 Z M 23.050781 13.832031 "/></g></g><g clip-rule="nonzero" clip-path="url(#c6b731aa5b)"><g clip-rule="nonzero" clip-path="url(#ab82136486)"><path style=" stroke:none;fill-rule:nonzero;fill:#a1c8d4;fill-opacity:1;" d="M 23.050781 13.832031 L 52.617188 13.832031 L 52.617188 30.359375 L 23.050781 30.359375 Z M 23.050781 13.832031 "/></g></g><g clip-rule="nonzero" clip-path="url(#ec5ecc5c73)"><g clip-rule="nonzero" clip-path="url(#900856b0e0)"><path style=" stroke:none;fill-rule:nonzero;fill:#a1c8d4;fill-opacity:1;" d="M 23.050781 13.832031 L 52.617188 13.832031 L 52.617188 30.359375 L 23.050781 30.359375 Z M 23.050781 13.832031 "/></g></g><g clip-rule="nonzero" clip-path="url(#23d1bf0548)"><g clip-rule="nonzero" clip-path="url(#3ab881d618)"><path style=" stroke:none;fill-rule:nonzero;fill:#a1c8d4;fill-opacity:1;" d="M 23.050781 13.832031 L 52.617188 13.832031 L 52.617188 30.359375 L 23.050781 30.359375 Z M 23.050781 13.832031 "/></g></g><g clip-rule="nonzero" clip-path="url(#b60aef0b0e)"><g clip-rule="nonzero" clip-path="url(#52c7c62ca2)"><path style=" stroke:none;fill-rule:nonzero;fill:#a1c8d4;fill-opacity:1;" d="M 23.050781 13.832031 L 52.617188 13.832031 L 52.617188 30.359375 L 23.050781 30.359375 Z M 23.050781 13.832031 "/></g></g><g clip-rule="nonzero" clip-path="url(#a3b97d9434)"><g clip-rule="nonzero" clip-path="url(#2ecd6f6a8f)"><path style=" stroke:none;fill-rule:nonzero;fill:#a1c8d4;fill-opacity:1;" d="M 23.050781 13.832031 L 52.617188 13.832031 L 52.617188 30.359375 L 23.050781 30.359375 Z M 23.050781 13.832031 "/></g></g><g clip-rule="nonzero" clip-path="url(#e3b080b65e)"><g clip-rule="nonzero" clip-path="url(#fbd40db10b)"><path style=" stroke:none;fill-rule:nonzero;fill:#a1c8d4;fill-opacity:1;" d="M 23.050781 13.832031 L 52.617188 13.832031 L 52.617188 30.359375 L 23.050781 30.359375 Z M 23.050781 13.832031 "/></g></g><g clip-rule="nonzero" clip-path="url(#920e6f141d)"><g clip-rule="nonzero" clip-path="url(#67bdec9118)"><path style=" stroke:none;fill-rule:nonzero;fill:#a1c8d4;fill-opacity:1;" d="M 23.050781 13.832031 L 52.617188 13.832031 L 52.617188 30.359375 L 23.050781 30.359375 Z M 23.050781 13.832031 "/></g></g><g clip-rule="nonzero" clip-path="url(#a6e633fe23)"><g clip-rule="nonzero" clip-path="url(#9c278c7754)"><path style=" stroke:none;fill-rule:nonzero;fill:#a1c8d4;fill-opacity:1;" d="M 23.050781 13.832031 L 52.617188 13.832031 L 52.617188 30.359375 L 23.050781 30.359375 Z M 23.050781 13.832031 "/></g></g><g clip-rule="nonzero" clip-path="url(#b632e4b2d4)"><g clip-rule="nonzero" clip-path="url(#35bbe03542)"><path style=" stroke:none;fill-rule:nonzero;fill:#a1c8d4;fill-opacity:1;" d="M 23.050781 13.832031 L 52.617188 13.832031 L 52.617188 30.359375 L 23.050781 30.359375 Z M 23.050781 13.832031 "/></g></g><g clip-rule="nonzero" clip-path="url(#9689e153dc)"><g clip-rule="nonzero" clip-path="url(#2a2ee79454)"><path style=" stroke:none;fill-rule:nonzero;fill:#a1c8d4;fill-opacity:1;" d="M 23.050781 13.832031 L 52.617188 13.832031 L 52.617188 30.359375 L 23.050781 30.359375 Z M 23.050781 13.832031 "/></g></g><g clip-rule="nonzero" clip-path="url(#7f746c9cb3)"><g clip-rule="nonzero" clip-path="url(#e0eb8b1812)"><path style=" stroke:none;fill-rule:nonzero;fill:#a1c8d4;fill-opacity:1;" d="M 23.050781 13.832031 L 52.617188 13.832031 L 52.617188 30.359375 L 23.050781 30.359375 Z M 23.050781 13.832031 "/></g></g><g clip-rule="nonzero" clip-path="url(#26eee7f09f)"><g clip-rule="nonzero" clip-path="url(#4c5ed9bef4)"><path style=" stroke:none;fill-rule:nonzero;fill:#9a9999;fill-opacity:1;" d="M 23.050781 13.832031 L 52.617188 13.832031 L 52.617188 30.359375 L 23.050781 30.359375 Z M 23.050781 13.832031 "/></g></g><g style="fill:#0b2d11;fill-opacity:1;"><g transform="translate(12.012022, 29.189574)"><path style="stroke:none" d="M 8.859375 -8.09375 L 8.859375 -6.59375 L 3.390625 -6.59375 L 3.390625 -1.515625 L 9.484375 -1.515625 L 9.484375 0 L 1.578125 0 L 1.578125 -14.046875 L 9.171875 -14.046875 L 9.171875 -12.53125 L 3.390625 -12.53125 L 3.390625 -8.09375 Z M 8.859375 -8.09375 "/></g></g></g></svg>