<svg xmlns="http://www.w3.org/2000/svg" xmlns:xlink="http://www.w3.org/1999/xlink" width="347" zoomAndPan="magnify" viewBox="0 0 260.25 116.249996" height="155" preserveAspectRatio="xMidYMid meet" version="1.2"><defs><clipPath id="544c24ede5"><path d="M 0.460938 0 L 259.042969 0 L 259.042969 115.503906 L 0.460938 115.503906 Z M 0.460938 0 "/></clipPath><clipPath id="7a0f4b23e8"><path d="M 12 71.5625 L 14.132812 71.5625 L 14.132812 103.605469 L 12 103.605469 Z M 12 71.5625 "/></clipPath><clipPath id="62b9a71a3f"><path d="M 87 21.828125 L 161 21.828125 L 161 79 L 87 79 Z M 87 21.828125 "/></clipPath><clipPath id="6eea29fc15"><path d="M 25.523438 15.363281 L 55.691406 15.363281 L 55.691406 31.09375 L 25.523438 31.09375 Z M 25.523438 15.363281 "/></clipPath><clipPath id="8479f66215"><path d="M 36.429688 16.289062 C 36.066406 16.929688 35.660156 17.542969 35.195312 18.109375 C 34.355469 17.683594 33.464844 17.570312 32.542969 17.660156 C 31.164062 17.789062 30.011719 18.382812 29.097656 19.464844 C 28.761719 19.769531 28.535156 20.152344 28.34375 20.5625 C 28.171875 20.773438 28.09375 21.03125 28.011719 21.28125 C 27.515625 22.789062 27.527344 24.273438 28.261719 25.707031 C 28.429688 26.148438 28.667969 26.539062 28.996094 26.871094 C 29.625 27.675781 30.417969 28.222656 31.367188 28.527344 C 32.441406 28.910156 33.523438 28.9375 34.609375 28.5625 C 35.539062 28.308594 36.335938 27.808594 36.949219 27.054688 C 38.121094 25.617188 38.914062 23.917969 39.871094 22.335938 C 40.210938 21.773438 40.554688 21.214844 40.890625 20.648438 C 41.609375 19.445312 42.253906 18.191406 43.328125 17.261719 C 44.625 16.140625 46.105469 15.503906 47.792969 15.425781 C 49.824219 15.335938 51.625 15.976562 53.140625 17.386719 C 55.066406 19.175781 55.898438 21.449219 55.636719 24.117188 C 55.4375 26.105469 54.574219 27.773438 53.128906 29.085938 C 51.472656 30.597656 49.527344 31.28125 47.34375 30.957031 C 45.273438 30.652344 43.488281 29.71875 42.191406 27.933594 C 42.589844 27.238281 43.0625 26.597656 43.515625 25.9375 C 43.8125 26.441406 44.210938 26.859375 44.613281 27.269531 C 46.636719 29.335938 49.796875 29.347656 51.863281 27.324219 C 54.125 25.109375 54.09375 21.285156 51.8125 19.089844 C 49.613281 16.972656 45.941406 17.199219 44.0625 19.625 C 43.621094 20.195312 43.300781 20.84375 42.914062 21.449219 C 41.34375 23.914062 40.105469 26.601562 38.265625 28.886719 C 37.539062 29.519531 36.773438 30.085938 35.886719 30.457031 C 33.722656 31.363281 31.601562 31.1875 29.519531 30.160156 C 29.359375 30.050781 29.195312 29.9375 29.03125 29.828125 C 27.53125 28.828125 26.511719 27.433594 25.90625 25.703125 C 25.871094 25.566406 25.84375 25.429688 25.808594 25.296875 C 24.789062 21.398438 26.75 17.351562 30.378906 15.925781 C 32.433594 15.117188 34.464844 15.242188 36.429688 16.289062 "/></clipPath><clipPath id="4fb300c47f"><path d="M 39.175781 14.507812 L 56.621094 14.507812 L 56.621094 32 L 39.175781 32 Z M 39.175781 14.507812 "/></clipPath><clipPath id="07bb33620b"><path d="M 42.191406 27.933594 C 43.488281 29.714844 45.273438 30.652344 47.34375 30.957031 C 49.527344 31.28125 51.472656 30.59375 53.128906 29.085938 C 54.574219 27.769531 55.441406 26.101562 55.636719 24.117188 C 55.898438 21.449219 55.066406 19.175781 53.140625 17.382812 C 51.625 15.976562 49.824219 15.335938 47.792969 15.425781 C 46.105469 15.5 44.625 16.136719 43.328125 17.261719 C 42.253906 18.191406 41.609375 19.445312 40.894531 20.648438 C 40.554688 21.210938 40.214844 21.773438 39.875 22.332031 C 39.644531 22.171875 39.414062 22.011719 39.183594 21.851562 C 39.464844 21.140625 39.914062 20.53125 40.292969 19.875 C 40.90625 18.820312 41.488281 17.738281 42.375 16.886719 C 43.734375 15.578125 45.3125 14.777344 47.175781 14.570312 C 49.511719 14.316406 51.601562 14.925781 53.421875 16.457031 C 55.1875 17.9375 56.214844 19.867188 56.488281 22.222656 C 56.742188 24.425781 56.25 26.4375 55.027344 28.234375 C 53.710938 30.175781 51.914062 31.402344 49.660156 31.8125 C 48.003906 32.117188 46.375 31.945312 44.808594 31.25 C 43.929688 30.859375 43.160156 30.308594 42.441406 29.671875 C 42.34375 29.582031 42.261719 29.464844 42.183594 29.351562 C 41.671875 28.632812 41.675781 28.632812 42.191406 27.9375 "/></clipPath><clipPath id="666ad1ff3a"><path d="M 38.246094 17.582031 L 53.546875 17.582031 L 53.546875 29.449219 L 38.246094 29.449219 Z M 38.246094 17.582031 "/></clipPath><clipPath id="286aede6de"><path d="M 38.265625 28.886719 C 40.105469 26.601562 41.347656 23.914062 42.914062 21.449219 C 43.300781 20.839844 43.621094 20.195312 44.0625 19.625 C 45.945312 17.199219 49.617188 16.972656 51.816406 19.089844 C 54.09375 21.285156 54.125 25.109375 51.863281 27.320312 C 49.796875 29.347656 46.636719 29.332031 44.617188 27.269531 C 44.210938 26.855469 43.816406 26.441406 43.515625 25.9375 C 43.960938 25.160156 43.960938 25.160156 44.472656 25.863281 C 45.425781 27.167969 46.667969 27.945312 48.265625 27.914062 C 49.488281 27.890625 50.519531 27.359375 51.398438 26.449219 C 52.695312 25.101562 53.042969 22.867188 52.199219 21.148438 C 50.773438 18.253906 47.023438 17.65625 44.914062 19.996094 C 44.265625 20.714844 43.851562 21.613281 43.351562 22.445312 C 42.238281 24.304688 41.144531 26.179688 40.023438 28.035156 C 39.722656 28.53125 39.402344 29.019531 38.949219 29.386719 C 38.722656 29.21875 38.496094 29.050781 38.269531 28.882812 "/></clipPath><clipPath id="d14310b9b6"><path d="M 24.59375 14.433594 L 36.890625 14.433594 L 36.890625 26.230469 L 24.59375 26.230469 Z M 24.59375 14.433594 "/></clipPath><clipPath id="5b619bc043"><path d="M 36.429688 16.289062 C 34.464844 15.238281 32.433594 15.117188 30.378906 15.925781 C 26.75 17.351562 24.789062 21.398438 25.808594 25.296875 C 25.84375 25.429688 25.871094 25.566406 25.90625 25.703125 C 25.621094 25.78125 25.496094 26.136719 25.175781 26.164062 C 24.628906 24.777344 24.527344 23.332031 24.765625 21.875 C 25.378906 18.085938 27.976562 15.335938 31.597656 14.628906 C 33.289062 14.296875 34.917969 14.539062 36.46875 15.332031 C 36.957031 15.582031 36.96875 15.621094 36.636719 16.074219 C 36.578125 16.152344 36.5 16.21875 36.429688 16.289062 "/></clipPath><clipPath id="4bbeb0df0f"><path d="M 29.097656 28.875 L 38.960938 28.875 L 38.960938 32 L 29.097656 32 Z M 29.097656 28.875 "/></clipPath><clipPath id="26ea8f8fce"><path d="M 38.265625 28.886719 C 38.496094 29.054688 38.722656 29.21875 38.949219 29.386719 C 37.980469 30.421875 36.839844 31.164062 35.507812 31.578125 C 33.425781 32.234375 31.394531 32.066406 29.425781 31.105469 C 29.324219 31.058594 29.21875 31.023438 29.148438 30.925781 C 29.199219 30.632812 29.507812 30.472656 29.523438 30.164062 C 31.605469 31.1875 33.722656 31.367188 35.886719 30.457031 C 36.773438 30.085938 37.539062 29.519531 38.265625 28.886719 "/></clipPath><clipPath id="bff78fbf40"><path d="M 34.457031 21.796875 L 39.890625 21.796875 L 39.890625 28.589844 L 34.457031 28.589844 Z M 34.457031 21.796875 "/></clipPath><clipPath id="9a68097be6"><path d="M 39.183594 21.851562 C 39.414062 22.011719 39.644531 22.171875 39.871094 22.332031 C 38.914062 23.917969 38.121094 25.617188 36.949219 27.054688 C 36.335938 27.804688 35.539062 28.308594 34.609375 28.5625 C 34.585938 28.269531 34.65625 27.96875 34.523438 27.6875 C 35.453125 27.273438 36.257812 26.6875 36.804688 25.789062 C 37.539062 24.585938 38.246094 23.363281 38.964844 22.152344 C 39.027344 22.046875 39.109375 21.953125 39.183594 21.851562 "/></clipPath><clipPath id="910bfad8a7"><path d="M 25.164062 25.660156 L 29.527344 25.660156 L 29.527344 30.949219 L 25.164062 30.949219 Z M 25.164062 25.660156 "/></clipPath><clipPath id="46732f18cc"><path d="M 29.523438 30.164062 C 29.507812 30.476562 29.199219 30.632812 29.148438 30.925781 C 28.65625 30.742188 28.246094 30.414062 27.851562 30.078125 C 26.6875 29.089844 25.773438 27.902344 25.238281 26.421875 C 25.207031 26.339844 25.195312 26.25 25.175781 26.164062 C 25.496094 26.136719 25.617188 25.78125 25.90625 25.703125 C 26.511719 27.433594 27.53125 28.832031 29.03125 29.828125 C 29.195312 29.9375 29.359375 30.050781 29.519531 30.164062 "/></clipPath><clipPath id="9819da030d"><path d="M 29.027344 17.652344 L 32.601562 17.652344 L 32.601562 20.511719 L 29.027344 20.511719 Z M 29.027344 17.652344 "/></clipPath><clipPath id="027c3587de"><path d="M 29.097656 19.460938 C 30.011719 18.382812 31.164062 17.789062 32.542969 17.660156 C 32.539062 17.960938 32.539062 18.261719 32.539062 18.5625 C 31.242188 18.773438 30.1875 19.410156 29.378906 20.488281 C 29.175781 20.386719 29.238281 20.191406 29.226562 20.027344 C 29.214844 19.832031 29.269531 19.617188 29.097656 19.460938 "/></clipPath><clipPath id="e7bc1aa91d"><path d="M 31.3125 27.589844 L 34.671875 27.589844 L 34.671875 28.875 L 31.3125 28.875 Z M 31.3125 27.589844 "/></clipPath><clipPath id="eee615c359"><path d="M 34.523438 27.6875 C 34.65625 27.96875 34.585938 28.269531 34.609375 28.5625 C 33.523438 28.9375 32.445312 28.910156 31.367188 28.527344 C 31.367188 28.226562 31.363281 27.925781 31.363281 27.625 C 31.746094 27.636719 32.089844 27.8125 32.46875 27.867188 C 33.171875 27.96875 33.84375 27.816406 34.523438 27.6875 "/></clipPath><clipPath id="94a4253431"><path d="M 27.667969 20.511719 L 28.597656 20.511719 L 28.597656 25.730469 L 27.667969 25.730469 Z M 27.667969 20.511719 "/></clipPath><clipPath id="cb0c56741d"><path d="M 28.261719 25.707031 C 27.527344 24.273438 27.515625 22.789062 28.011719 21.28125 C 28.09375 21.03125 28.171875 20.773438 28.34375 20.5625 C 28.492188 20.941406 28.394531 21.339844 28.414062 21.726562 C 28.425781 21.96875 28.40625 22.210938 28.570312 22.414062 C 28.566406 22.820312 28.5625 23.230469 28.558594 23.636719 C 28.386719 23.722656 28.421875 23.890625 28.417969 24.039062 C 28.414062 24.445312 28.417969 24.855469 28.417969 25.261719 C 28.417969 25.429688 28.421875 25.597656 28.265625 25.707031 "/></clipPath><clipPath id="c292fb61a2"><path d="M 28.953125 25.660156 L 31.382812 25.660156 L 31.382812 28.589844 L 28.953125 28.589844 Z M 28.953125 25.660156 "/></clipPath><clipPath id="892b5b0fe0"><path d="M 31.363281 27.625 C 31.367188 27.925781 31.367188 28.226562 31.367188 28.527344 C 30.417969 28.222656 29.625 27.675781 28.996094 26.867188 C 29.082031 26.625 29.082031 26.367188 29.082031 26.113281 C 29.082031 25.964844 29.046875 25.796875 29.21875 25.707031 C 29.652344 26.429688 30.234375 26.976562 30.953125 27.375 C 31.09375 27.453125 31.226562 27.539062 31.367188 27.621094 "/></clipPath><clipPath id="0e69075b46"><path d="M 32.527344 17.582031 L 35.246094 17.582031 L 35.246094 18.867188 L 32.527344 18.867188 Z M 32.527344 17.582031 "/></clipPath><clipPath id="91d132e315"><path d="M 32.539062 18.5625 C 32.539062 18.261719 32.542969 17.960938 32.542969 17.660156 C 33.464844 17.570312 34.355469 17.683594 35.195312 18.109375 C 35.171875 18.179688 35.152344 18.257812 35.117188 18.324219 C 34.828125 18.875 34.824219 18.890625 34.25 18.710938 C 33.683594 18.535156 33.113281 18.574219 32.539062 18.5625 "/></clipPath><clipPath id="5b372ecb98"><path d="M 28.3125 19.4375 L 29.382812 19.4375 L 29.382812 22.441406 L 28.3125 22.441406 Z M 28.3125 19.4375 "/></clipPath><clipPath id="1fd1d21d68"><path d="M 28.566406 22.414062 C 28.40625 22.210938 28.425781 21.96875 28.414062 21.726562 C 28.394531 21.339844 28.492188 20.941406 28.34375 20.5625 C 28.535156 20.152344 28.761719 19.769531 29.09375 19.464844 C 29.269531 19.617188 29.214844 19.832031 29.226562 20.027344 C 29.238281 20.191406 29.175781 20.390625 29.378906 20.488281 C 29.003906 21.082031 28.746094 21.730469 28.566406 22.414062 "/></clipPath><clipPath id="7a2e28fd42"><path d="M 28.238281 23.585938 L 29.238281 23.585938 L 29.238281 26.875 L 28.238281 26.875 Z M 28.238281 23.585938 "/></clipPath><clipPath id="dd68516ed1"><path d="M 29.21875 25.710938 C 29.046875 25.796875 29.082031 25.964844 29.082031 26.113281 C 29.082031 26.371094 29.082031 26.625 29 26.871094 C 28.671875 26.539062 28.429688 26.148438 28.265625 25.707031 C 28.421875 25.597656 28.417969 25.429688 28.417969 25.261719 C 28.417969 24.855469 28.414062 24.445312 28.417969 24.039062 C 28.421875 23.890625 28.386719 23.722656 28.558594 23.636719 C 28.570312 24.398438 28.875 25.0625 29.21875 25.710938 "/></clipPath><clipPath id="9be372399a"><path d="M 50.257812 25.660156 L 50.402344 25.660156 L 50.402344 25.800781 L 50.257812 25.800781 Z M 50.257812 25.660156 "/></clipPath><clipPath id="dd15205fd7"><path d="M 50.328125 25.761719 C 50.351562 25.742188 50.371094 25.722656 50.394531 25.707031 C 50.371094 25.722656 50.351562 25.742188 50.328125 25.761719 "/></clipPath></defs><g id="ff7b5a9fb0"><g clip-rule="nonzero" clip-path="url(#544c24ede5)"><path style=" stroke:none;fill-rule:nonzero;fill:#ffffff;fill-opacity:1;" d="M 0.460938 0 L 259.042969 0 L 259.042969 115.503906 L 0.460938 115.503906 Z M 0.460938 0 "/><path style=" stroke:none;fill-rule:nonzero;fill:#314528;fill-opacity:1;" d="M 0.460938 0 L 259.042969 0 L 259.042969 115.503906 L 0.460938 115.503906 Z M 0.460938 0 "/></g><g clip-rule="nonzero" clip-path="url(#7a0f4b23e8)"><path style=" stroke:none;fill-rule:nonzero;fill:#619618;fill-opacity:1;" d="M 14.132812 102.257812 L 14.132812 72.90625 C 14.132812 72.328125 13.660156 71.859375 13.082031 71.859375 C 12.503906 71.859375 12.035156 72.328125 12.035156 72.90625 L 12.035156 102.257812 C 12.035156 102.835938 12.503906 103.304688 13.082031 103.304688 C 13.660156 103.304688 14.132812 102.835938 14.132812 102.257812 Z M 14.132812 102.257812 "/></g><g clip-rule="nonzero" clip-path="url(#62b9a71a3f)"><path style=" stroke:none;fill-rule:nonzero;fill:#619618;fill-opacity:1;" d="M 155.203125 65.515625 C 156.976562 56 159.03125 46.542969 160.820312 37.035156 C 161.355469 34.167969 159.738281 30.5 156.605469 30.046875 C 155.222656 29.664062 153.605469 31.136719 154.175781 32.542969 C 154.351562 33.726562 155.699219 33.859375 156.605469 34.160156 C 156.882812 34.929688 157.390625 35.71875 157.066406 36.574219 C 156.867188 37.59375 156.660156 38.613281 156.460938 39.632812 L 110.351562 39.632812 C 109.441406 39.632812 108.699219 40.371094 108.699219 41.285156 C 108.699219 42.195312 109.441406 42.9375 110.351562 42.9375 L 155.800781 42.9375 C 154.570312 49.125 153.320312 55.308594 152.105469 61.503906 C 151.835938 62.792969 151.644531 64.121094 151.101562 65.335938 C 150.132812 65.710938 149.046875 65.519531 148.035156 65.574219 C 136.046875 65.539062 124.054688 65.566406 112.074219 65.558594 C 109.027344 52.574219 106.023438 39.578125 102.96875 26.589844 C 102.582031 24.140625 100.484375 21.878906 97.882812 21.972656 C 94.773438 21.988281 91.652344 21.839844 88.550781 22.058594 C 86.835938 22.644531 86.835938 25.175781 88.515625 25.816406 C 91.792969 26.128906 95.101562 25.730469 98.378906 26.007812 C 99.164062 26.390625 99.019531 27.484375 99.324219 28.195312 C 102.90625 43.632812 106.515625 59.066406 110.164062 74.5 C 110.632812 77.015625 113.03125 79.023438 115.632812 78.773438 C 128.4375 78.753906 141.238281 78.820312 154.035156 78.738281 C 156.480469 78.820312 156.492188 74.78125 154.046875 74.84375 C 142.566406 74.761719 131.078125 74.820312 119.597656 74.808594 C 117.875 74.769531 116.121094 74.96875 114.417969 74.625 C 113.660156 73.019531 113.453125 71.222656 113 69.523438 C 125.339844 69.523438 137.679688 69.53125 150.019531 69.523438 C 152.417969 69.730469 154.847656 67.910156 155.203125 65.515625 Z M 155.203125 65.515625 "/></g><path style=" stroke:none;fill-rule:nonzero;fill:#619618;fill-opacity:1;" d="M 117.046875 80.234375 C 114.789062 80.675781 112.914062 82.558594 112.476562 84.816406 C 111.734375 87.929688 113.957031 91.324219 117.113281 91.859375 C 120.382812 92.613281 123.890625 90.089844 124.167969 86.738281 C 124.789062 82.863281 120.851562 79.261719 117.046875 80.234375 Z M 119.914062 87.121094 C 119.28125 88.167969 117.667969 88.371094 116.867188 87.402344 C 115.773438 86.429688 116.371094 84.488281 117.742188 84.144531 C 119.367188 83.523438 121.0625 85.753906 119.914062 87.121094 Z M 119.914062 87.121094 "/><path style=" stroke:none;fill-rule:nonzero;fill:#619618;fill-opacity:1;" d="M 146.175781 80.21875 C 141.847656 80.878906 139.871094 86.738281 142.84375 89.917969 C 145.527344 93.3125 151.597656 92.261719 152.917969 88.113281 C 154.664062 83.984375 150.527344 79.121094 146.175781 80.21875 Z M 148.425781 87.675781 C 146.398438 89.257812 144.035156 85.65625 146.265625 84.402344 C 148.296875 82.816406 150.671875 86.421875 148.425781 87.675781 Z M 148.425781 87.675781 "/><g style="fill:#ffffff;fill-opacity:1;"><g transform="translate(18.160764, 84.228542)"><path style="stroke:none" d="M 6.53125 -8.234375 L 6.53125 -7.171875 L 2.296875 -7.171875 L 2.296875 -4.671875 L 6.078125 -4.671875 L 6.078125 -3.609375 L 2.296875 -3.609375 L 2.296875 -1.078125 L 6.703125 -1.078125 L 6.703125 0 L 1.1875 0 L 1.1875 -8.234375 Z M 6.53125 -8.234375 "/></g></g><g style="fill:#ffffff;fill-opacity:1;"><g transform="translate(25.596756, 84.228542)"><path style="stroke:none" d="M 7.234375 -0.609375 C 6.960938 -0.441406 6.625 -0.28125 6.21875 -0.125 C 5.8125 0.0195312 5.367188 0.09375 4.890625 0.09375 C 4.054688 0.09375 3.316406 -0.09375 2.671875 -0.46875 C 2.023438 -0.84375 1.53125 -1.34375 1.1875 -1.96875 C 0.84375 -2.601562 0.671875 -3.300781 0.671875 -4.0625 C 0.671875 -4.875 0.84375 -5.601562 1.1875 -6.25 C 1.539062 -6.894531 2.023438 -7.398438 2.640625 -7.765625 C 3.265625 -8.140625 3.96875 -8.328125 4.75 -8.328125 C 5.207031 -8.328125 5.640625 -8.265625 6.046875 -8.140625 C 6.453125 -8.023438 6.8125 -7.867188 7.125 -7.671875 L 6.6875 -6.625 C 6.050781 -7.050781 5.414062 -7.265625 4.78125 -7.265625 C 4.25 -7.265625 3.753906 -7.125 3.296875 -6.84375 C 2.847656 -6.5625 2.488281 -6.179688 2.21875 -5.703125 C 1.957031 -5.222656 1.828125 -4.691406 1.828125 -4.109375 C 1.828125 -3.515625 1.945312 -2.976562 2.1875 -2.5 C 2.4375 -2.019531 2.789062 -1.644531 3.25 -1.375 C 3.707031 -1.113281 4.238281 -0.984375 4.84375 -0.984375 C 5.582031 -0.984375 6.222656 -1.191406 6.765625 -1.609375 Z M 7.234375 -0.609375 "/></g></g><g style="fill:#ffffff;fill-opacity:1;"><g transform="translate(33.499631, 84.228542)"><path style="stroke:none" d="M 0.671875 -4.109375 C 0.671875 -4.859375 0.859375 -5.554688 1.234375 -6.203125 C 1.617188 -6.847656 2.128906 -7.363281 2.765625 -7.75 C 3.410156 -8.132812 4.113281 -8.328125 4.875 -8.328125 C 5.625 -8.328125 6.320312 -8.132812 6.96875 -7.75 C 7.613281 -7.363281 8.128906 -6.847656 8.515625 -6.203125 C 8.898438 -5.554688 9.09375 -4.859375 9.09375 -4.109375 C 9.09375 -3.347656 8.898438 -2.644531 8.515625 -2 C 8.140625 -1.351562 7.625 -0.84375 6.96875 -0.46875 C 6.320312 -0.09375 5.625 0.09375 4.875 0.09375 C 4.113281 0.09375 3.410156 -0.09375 2.765625 -0.46875 C 2.117188 -0.84375 1.609375 -1.347656 1.234375 -1.984375 C 0.859375 -2.628906 0.671875 -3.335938 0.671875 -4.109375 Z M 1.8125 -4.09375 C 1.8125 -3.53125 1.945312 -3.007812 2.21875 -2.53125 C 2.488281 -2.0625 2.863281 -1.6875 3.34375 -1.40625 C 3.820312 -1.125 4.335938 -0.984375 4.890625 -0.984375 C 5.453125 -0.984375 5.96875 -1.117188 6.4375 -1.390625 C 6.90625 -1.671875 7.273438 -2.050781 7.546875 -2.53125 C 7.816406 -3.007812 7.953125 -3.535156 7.953125 -4.109375 C 7.953125 -4.679688 7.8125 -5.207031 7.53125 -5.6875 C 7.257812 -6.175781 6.890625 -6.5625 6.421875 -6.84375 C 5.953125 -7.125 5.4375 -7.265625 4.875 -7.265625 C 4.3125 -7.265625 3.796875 -7.117188 3.328125 -6.828125 C 2.859375 -6.546875 2.488281 -6.160156 2.21875 -5.671875 C 1.945312 -5.191406 1.8125 -4.664062 1.8125 -4.09375 Z M 1.8125 -4.09375 "/></g></g><g style="fill:#ffffff;fill-opacity:1;"><g transform="translate(43.258663, 84.228542)"><path style="stroke:none" d="M 2.296875 -8.234375 L 2.296875 -1.078125 L 6.484375 -1.078125 L 6.484375 0 L 1.1875 0 L 1.1875 -8.234375 Z M 2.296875 -8.234375 "/></g></g><g style="fill:#ffffff;fill-opacity:1;"><g transform="translate(50.341651, 84.228542)"><path style="stroke:none" d="M 0.671875 -4.109375 C 0.671875 -4.859375 0.859375 -5.554688 1.234375 -6.203125 C 1.617188 -6.847656 2.128906 -7.363281 2.765625 -7.75 C 3.410156 -8.132812 4.113281 -8.328125 4.875 -8.328125 C 5.625 -8.328125 6.320312 -8.132812 6.96875 -7.75 C 7.613281 -7.363281 8.128906 -6.847656 8.515625 -6.203125 C 8.898438 -5.554688 9.09375 -4.859375 9.09375 -4.109375 C 9.09375 -3.347656 8.898438 -2.644531 8.515625 -2 C 8.140625 -1.351562 7.625 -0.84375 6.96875 -0.46875 C 6.320312 -0.09375 5.625 0.09375 4.875 0.09375 C 4.113281 0.09375 3.410156 -0.09375 2.765625 -0.46875 C 2.117188 -0.84375 1.609375 -1.347656 1.234375 -1.984375 C 0.859375 -2.628906 0.671875 -3.335938 0.671875 -4.109375 Z M 1.8125 -4.09375 C 1.8125 -3.53125 1.945312 -3.007812 2.21875 -2.53125 C 2.488281 -2.0625 2.863281 -1.6875 3.34375 -1.40625 C 3.820312 -1.125 4.335938 -0.984375 4.890625 -0.984375 C 5.453125 -0.984375 5.96875 -1.117188 6.4375 -1.390625 C 6.90625 -1.671875 7.273438 -2.050781 7.546875 -2.53125 C 7.816406 -3.007812 7.953125 -3.535156 7.953125 -4.109375 C 7.953125 -4.679688 7.8125 -5.207031 7.53125 -5.6875 C 7.257812 -6.175781 6.890625 -6.5625 6.421875 -6.84375 C 5.953125 -7.125 5.4375 -7.265625 4.875 -7.265625 C 4.3125 -7.265625 3.796875 -7.117188 3.328125 -6.828125 C 2.859375 -6.546875 2.488281 -6.160156 2.21875 -5.671875 C 1.945312 -5.191406 1.8125 -4.664062 1.8125 -4.09375 Z M 1.8125 -4.09375 "/></g></g><g style="fill:#ffffff;fill-opacity:1;"><g transform="translate(60.100684, 84.228542)"><path style="stroke:none" d="M 2.96875 -1.484375 C 2.96875 -0.835938 2.84375 -0.28125 2.59375 0.1875 C 2.34375 0.664062 1.992188 1.03125 1.546875 1.28125 C 1.109375 1.539062 0.601562 1.679688 0.03125 1.703125 L 0.03125 0.625 C 0.59375 0.59375 1.039062 0.394531 1.375 0.03125 C 1.707031 -0.320312 1.875 -0.84375 1.875 -1.53125 L 1.875 -8.234375 L 2.96875 -8.234375 Z M 2.96875 -1.484375 "/></g></g><g style="fill:#ffffff;fill-opacity:1;"><g transform="translate(64.257095, 84.228542)"><path style="stroke:none" d="M 5.5 -2.171875 L 2.328125 -2.171875 L 1.453125 0 L 0.359375 0 L 3.96875 -8.578125 L 4.03125 -8.578125 L 7.625 0 L 6.359375 0 Z M 5.125 -3.125 L 3.953125 -6.125 L 2.734375 -3.125 Z M 5.125 -3.125 "/></g></g><g style="fill:#ffffff;fill-opacity:1;"><g transform="translate(18.160764, 99.877579)"><path style="stroke:none" d="M 5.4375 -6.765625 C 5.144531 -6.921875 4.832031 -7.046875 4.5 -7.140625 C 4.164062 -7.242188 3.847656 -7.296875 3.546875 -7.296875 C 3.097656 -7.296875 2.742188 -7.195312 2.484375 -7 C 2.222656 -6.800781 2.09375 -6.523438 2.09375 -6.171875 C 2.09375 -5.828125 2.242188 -5.546875 2.546875 -5.328125 C 2.859375 -5.117188 3.300781 -4.90625 3.875 -4.6875 C 4.300781 -4.539062 4.660156 -4.378906 4.953125 -4.203125 C 5.242188 -4.023438 5.484375 -3.773438 5.671875 -3.453125 C 5.867188 -3.140625 5.96875 -2.738281 5.96875 -2.25 C 5.96875 -1.8125 5.859375 -1.414062 5.640625 -1.0625 C 5.421875 -0.707031 5.109375 -0.425781 4.703125 -0.21875 C 4.296875 -0.0078125 3.816406 0.09375 3.265625 0.09375 C 2.753906 0.09375 2.265625 0.0078125 1.796875 -0.15625 C 1.328125 -0.320312 0.914062 -0.53125 0.5625 -0.78125 L 1.046875 -1.65625 C 1.328125 -1.4375 1.664062 -1.253906 2.0625 -1.109375 C 2.457031 -0.960938 2.828125 -0.890625 3.171875 -0.890625 C 3.609375 -0.890625 3.988281 -1.003906 4.3125 -1.234375 C 4.644531 -1.460938 4.8125 -1.800781 4.8125 -2.25 C 4.8125 -2.625 4.671875 -2.921875 4.390625 -3.140625 C 4.117188 -3.367188 3.734375 -3.582031 3.234375 -3.78125 C 2.773438 -3.957031 2.390625 -4.128906 2.078125 -4.296875 C 1.773438 -4.460938 1.507812 -4.691406 1.28125 -4.984375 C 1.0625 -5.273438 0.953125 -5.640625 0.953125 -6.078125 C 0.953125 -6.722656 1.175781 -7.242188 1.625 -7.640625 C 2.082031 -8.046875 2.671875 -8.257812 3.390625 -8.28125 C 4.285156 -8.28125 5.109375 -8.0625 5.859375 -7.625 Z M 5.4375 -6.765625 "/></g></g><g style="fill:#ffffff;fill-opacity:1;"><g transform="translate(24.788252, 99.877579)"><path style="stroke:none" d="M 2.1875 -2.921875 C 2.1875 -2.554688 2.273438 -2.222656 2.453125 -1.921875 C 2.628906 -1.628906 2.863281 -1.398438 3.15625 -1.234375 C 3.457031 -1.066406 3.789062 -0.984375 4.15625 -0.984375 C 4.539062 -0.984375 4.882812 -1.066406 5.1875 -1.234375 C 5.5 -1.398438 5.738281 -1.628906 5.90625 -1.921875 C 6.082031 -2.222656 6.171875 -2.554688 6.171875 -2.921875 L 6.171875 -8.234375 L 7.25 -8.234375 L 7.25 -2.875 C 7.25 -2.289062 7.113281 -1.773438 6.84375 -1.328125 C 6.570312 -0.878906 6.195312 -0.53125 5.71875 -0.28125 C 5.25 -0.03125 4.726562 0.09375 4.15625 0.09375 C 3.582031 0.09375 3.0625 -0.03125 2.59375 -0.28125 C 2.125 -0.53125 1.753906 -0.878906 1.484375 -1.328125 C 1.210938 -1.773438 1.078125 -2.289062 1.078125 -2.875 L 1.078125 -8.234375 L 2.1875 -8.234375 Z M 2.1875 -2.921875 "/></g></g><g style="fill:#ffffff;fill-opacity:1;"><g transform="translate(33.123851, 99.877579)"><path style="stroke:none" d="M 5.4375 -6.765625 C 5.144531 -6.921875 4.832031 -7.046875 4.5 -7.140625 C 4.164062 -7.242188 3.847656 -7.296875 3.546875 -7.296875 C 3.097656 -7.296875 2.742188 -7.195312 2.484375 -7 C 2.222656 -6.800781 2.09375 -6.523438 2.09375 -6.171875 C 2.09375 -5.828125 2.242188 -5.546875 2.546875 -5.328125 C 2.859375 -5.117188 3.300781 -4.90625 3.875 -4.6875 C 4.300781 -4.539062 4.660156 -4.378906 4.953125 -4.203125 C 5.242188 -4.023438 5.484375 -3.773438 5.671875 -3.453125 C 5.867188 -3.140625 5.96875 -2.738281 5.96875 -2.25 C 5.96875 -1.8125 5.859375 -1.414062 5.640625 -1.0625 C 5.421875 -0.707031 5.109375 -0.425781 4.703125 -0.21875 C 4.296875 -0.0078125 3.816406 0.09375 3.265625 0.09375 C 2.753906 0.09375 2.265625 0.0078125 1.796875 -0.15625 C 1.328125 -0.320312 0.914062 -0.53125 0.5625 -0.78125 L 1.046875 -1.65625 C 1.328125 -1.4375 1.664062 -1.253906 2.0625 -1.109375 C 2.457031 -0.960938 2.828125 -0.890625 3.171875 -0.890625 C 3.609375 -0.890625 3.988281 -1.003906 4.3125 -1.234375 C 4.644531 -1.460938 4.8125 -1.800781 4.8125 -2.25 C 4.8125 -2.625 4.671875 -2.921875 4.390625 -3.140625 C 4.117188 -3.367188 3.734375 -3.582031 3.234375 -3.78125 C 2.773438 -3.957031 2.390625 -4.128906 2.078125 -4.296875 C 1.773438 -4.460938 1.507812 -4.691406 1.28125 -4.984375 C 1.0625 -5.273438 0.953125 -5.640625 0.953125 -6.078125 C 0.953125 -6.722656 1.175781 -7.242188 1.625 -7.640625 C 2.082031 -8.046875 2.671875 -8.257812 3.390625 -8.28125 C 4.285156 -8.28125 5.109375 -8.0625 5.859375 -7.625 Z M 5.4375 -6.765625 "/></g></g><g style="fill:#ffffff;fill-opacity:1;"><g transform="translate(39.751339, 99.877579)"><path style="stroke:none" d="M 6.046875 -8.234375 L 6.046875 -7.171875 L 3.84375 -7.171875 L 3.84375 0 L 2.734375 0 L 2.734375 -7.171875 L 0.578125 -7.171875 L 0.578125 -8.234375 Z M 6.046875 -8.234375 "/></g></g><g style="fill:#ffffff;fill-opacity:1;"><g transform="translate(46.378826, 99.877579)"><path style="stroke:none" d="M 6.53125 -8.234375 L 6.53125 -7.171875 L 2.296875 -7.171875 L 2.296875 -4.671875 L 6.078125 -4.671875 L 6.078125 -3.609375 L 2.296875 -3.609375 L 2.296875 -1.078125 L 6.703125 -1.078125 L 6.703125 0 L 1.1875 0 L 1.1875 -8.234375 Z M 6.53125 -8.234375 "/></g></g><g style="fill:#ffffff;fill-opacity:1;"><g transform="translate(53.814818, 99.877579)"><path style="stroke:none" d="M 8.359375 -8.234375 L 8.359375 0.265625 L 8.328125 0.265625 L 2.28125 -5.859375 L 2.296875 0 L 1.1875 0 L 1.1875 -8.484375 L 1.234375 -8.484375 L 7.28125 -2.28125 L 7.25 -8.234375 Z M 8.359375 -8.234375 "/></g></g><g style="fill:#ffffff;fill-opacity:1;"><g transform="translate(63.357489, 99.877579)"><path style="stroke:none" d="M 6.046875 -8.234375 L 6.046875 -7.171875 L 3.84375 -7.171875 L 3.84375 0 L 2.734375 0 L 2.734375 -7.171875 L 0.578125 -7.171875 L 0.578125 -8.234375 Z M 6.046875 -8.234375 "/></g></g><g style="fill:#ffffff;fill-opacity:1;"><g transform="translate(69.984976, 99.877579)"><path style="stroke:none" d="M 5.5 -2.171875 L 2.328125 -2.171875 L 1.453125 0 L 0.359375 0 L 3.96875 -8.578125 L 4.03125 -8.578125 L 7.625 0 L 6.359375 0 Z M 5.125 -3.125 L 3.953125 -6.125 L 2.734375 -3.125 Z M 5.125 -3.125 "/></g></g><g style="fill:#ffffff;fill-opacity:1;"><g transform="translate(77.967571, 99.877579)"><path style="stroke:none" d="M 7.734375 -8.234375 L 4.09375 0.390625 L 0.46875 -8.234375 L 1.78125 -8.234375 L 4.140625 -2.296875 L 6.4375 -8.234375 Z M 7.734375 -8.234375 "/></g></g><g style="fill:#ffffff;fill-opacity:1;"><g transform="translate(86.155134, 99.877579)"><path style="stroke:none" d="M 6.53125 -8.234375 L 6.53125 -7.171875 L 2.296875 -7.171875 L 2.296875 -4.671875 L 6.078125 -4.671875 L 6.078125 -3.609375 L 2.296875 -3.609375 L 2.296875 -1.078125 L 6.703125 -1.078125 L 6.703125 0 L 1.1875 0 L 1.1875 -8.234375 Z M 6.53125 -8.234375 "/></g></g><g style="fill:#ffffff;fill-opacity:1;"><g transform="translate(93.591126, 99.877579)"><path style="stroke:none" d="M 2.296875 -8.234375 L 2.296875 -1.078125 L 6.484375 -1.078125 L 6.484375 0 L 1.1875 0 L 1.1875 -8.234375 Z M 2.296875 -8.234375 "/></g></g><g clip-rule="nonzero" clip-path="url(#6eea29fc15)"><g clip-rule="nonzero" clip-path="url(#8479f66215)"><path style=" stroke:none;fill-rule:nonzero;fill:#0b2d11;fill-opacity:1;" d="M 24.234375 14.078125 L 56.980469 14.078125 L 56.980469 32.378906 L 24.234375 32.378906 Z M 24.234375 14.078125 "/></g></g><g clip-rule="nonzero" clip-path="url(#4fb300c47f)"><g clip-rule="nonzero" clip-path="url(#07bb33620b)"><path style=" stroke:none;fill-rule:nonzero;fill:#ffcb28;fill-opacity:1;" d="M 24.234375 14.078125 L 56.980469 14.078125 L 56.980469 32.378906 L 24.234375 32.378906 Z M 24.234375 14.078125 "/></g></g><g clip-rule="nonzero" clip-path="url(#666ad1ff3a)"><g clip-rule="nonzero" clip-path="url(#286aede6de)"><path style=" stroke:none;fill-rule:nonzero;fill:#ffcb28;fill-opacity:1;" d="M 24.234375 14.078125 L 56.980469 14.078125 L 56.980469 32.378906 L 24.234375 32.378906 Z M 24.234375 14.078125 "/></g></g><g clip-rule="nonzero" clip-path="url(#d14310b9b6)"><g clip-rule="nonzero" clip-path="url(#5b619bc043)"><path style=" stroke:none;fill-rule:nonzero;fill:#a1c8d4;fill-opacity:1;" d="M 24.234375 14.078125 L 56.980469 14.078125 L 56.980469 32.378906 L 24.234375 32.378906 Z M 24.234375 14.078125 "/></g></g><g clip-rule="nonzero" clip-path="url(#4bbeb0df0f)"><g clip-rule="nonzero" clip-path="url(#26ea8f8fce)"><path style=" stroke:none;fill-rule:nonzero;fill:#a1c8d4;fill-opacity:1;" d="M 24.234375 14.078125 L 56.980469 14.078125 L 56.980469 32.378906 L 24.234375 32.378906 Z M 24.234375 14.078125 "/></g></g><g clip-rule="nonzero" clip-path="url(#bff78fbf40)"><g clip-rule="nonzero" clip-path="url(#9a68097be6)"><path style=" stroke:none;fill-rule:nonzero;fill:#a1c8d4;fill-opacity:1;" d="M 24.234375 14.078125 L 56.980469 14.078125 L 56.980469 32.378906 L 24.234375 32.378906 Z M 24.234375 14.078125 "/></g></g><g clip-rule="nonzero" clip-path="url(#910bfad8a7)"><g clip-rule="nonzero" clip-path="url(#46732f18cc)"><path style=" stroke:none;fill-rule:nonzero;fill:#a1c8d4;fill-opacity:1;" d="M 24.234375 14.078125 L 56.980469 14.078125 L 56.980469 32.378906 L 24.234375 32.378906 Z M 24.234375 14.078125 "/></g></g><g clip-rule="nonzero" clip-path="url(#9819da030d)"><g clip-rule="nonzero" clip-path="url(#027c3587de)"><path style=" stroke:none;fill-rule:nonzero;fill:#a1c8d4;fill-opacity:1;" d="M 24.234375 14.078125 L 56.980469 14.078125 L 56.980469 32.378906 L 24.234375 32.378906 Z M 24.234375 14.078125 "/></g></g><g clip-rule="nonzero" clip-path="url(#e7bc1aa91d)"><g clip-rule="nonzero" clip-path="url(#eee615c359)"><path style=" stroke:none;fill-rule:nonzero;fill:#a1c8d4;fill-opacity:1;" d="M 24.234375 14.078125 L 56.980469 14.078125 L 56.980469 32.378906 L 24.234375 32.378906 Z M 24.234375 14.078125 "/></g></g><g clip-rule="nonzero" clip-path="url(#94a4253431)"><g clip-rule="nonzero" clip-path="url(#cb0c56741d)"><path style=" stroke:none;fill-rule:nonzero;fill:#a1c8d4;fill-opacity:1;" d="M 24.234375 14.078125 L 56.980469 14.078125 L 56.980469 32.378906 L 24.234375 32.378906 Z M 24.234375 14.078125 "/></g></g><g clip-rule="nonzero" clip-path="url(#c292fb61a2)"><g clip-rule="nonzero" clip-path="url(#892b5b0fe0)"><path style=" stroke:none;fill-rule:nonzero;fill:#a1c8d4;fill-opacity:1;" d="M 24.234375 14.078125 L 56.980469 14.078125 L 56.980469 32.378906 L 24.234375 32.378906 Z M 24.234375 14.078125 "/></g></g><g clip-rule="nonzero" clip-path="url(#0e69075b46)"><g clip-rule="nonzero" clip-path="url(#91d132e315)"><path style=" stroke:none;fill-rule:nonzero;fill:#a1c8d4;fill-opacity:1;" d="M 24.234375 14.078125 L 56.980469 14.078125 L 56.980469 32.378906 L 24.234375 32.378906 Z M 24.234375 14.078125 "/></g></g><g clip-rule="nonzero" clip-path="url(#5b372ecb98)"><g clip-rule="nonzero" clip-path="url(#1fd1d21d68)"><path style=" stroke:none;fill-rule:nonzero;fill:#a1c8d4;fill-opacity:1;" d="M 24.234375 14.078125 L 56.980469 14.078125 L 56.980469 32.378906 L 24.234375 32.378906 Z M 24.234375 14.078125 "/></g></g><g clip-rule="nonzero" clip-path="url(#7a2e28fd42)"><g clip-rule="nonzero" clip-path="url(#dd68516ed1)"><path style=" stroke:none;fill-rule:nonzero;fill:#a1c8d4;fill-opacity:1;" d="M 24.234375 14.078125 L 56.980469 14.078125 L 56.980469 32.378906 L 24.234375 32.378906 Z M 24.234375 14.078125 "/></g></g><g clip-rule="nonzero" clip-path="url(#9be372399a)"><g clip-rule="nonzero" clip-path="url(#dd15205fd7)"><path style=" stroke:none;fill-rule:nonzero;fill:#9a9999;fill-opacity:1;" d="M 24.234375 14.078125 L 56.980469 14.078125 L 56.980469 32.378906 L 24.234375 32.378906 Z M 24.234375 14.078125 "/></g></g><g style="fill:#0b2d11;fill-opacity:1;"><g transform="translate(12.012022, 31.083346)"><path style="stroke:none" d="M 9.8125 -8.953125 L 9.8125 -7.296875 L 3.765625 -7.296875 L 3.765625 -1.6875 L 10.5 -1.6875 L 10.5 0 L 1.75 0 L 1.75 -15.5625 L 10.15625 -15.5625 L 10.15625 -13.875 L 3.765625 -13.875 L 3.765625 -8.953125 Z M 9.8125 -8.953125 "/></g></g></g></svg>