<svg xmlns="http://www.w3.org/2000/svg" xmlns:xlink="http://www.w3.org/1999/xlink" width="355" zoomAndPan="magnify" viewBox="0 0 266.25 58.499998" height="78" preserveAspectRatio="xMidYMid meet" version="1.2"><defs><clipPath id="10dfbec38b"><path d="M 27.804688 15.683594 L 68.507812 15.683594 L 68.507812 36.902344 L 27.804688 36.902344 Z M 27.804688 15.683594 "/></clipPath><clipPath id="7f526d82f2"><path d="M 42.519531 16.929688 C 42.027344 17.796875 41.484375 18.621094 40.855469 19.390625 C 39.71875 18.8125 38.519531 18.660156 37.273438 18.78125 C 35.417969 18.953125 33.863281 19.757812 32.625 21.214844 C 32.175781 21.625 31.867188 22.144531 31.609375 22.699219 C 31.378906 22.980469 31.273438 23.328125 31.160156 23.667969 C 30.492188 25.703125 30.507812 27.703125 31.5 29.636719 C 31.726562 30.234375 32.050781 30.761719 32.492188 31.207031 C 33.335938 32.296875 34.40625 33.035156 35.6875 33.445312 C 37.140625 33.960938 38.597656 33.996094 40.0625 33.492188 C 41.316406 33.152344 42.394531 32.472656 43.222656 31.457031 C 44.800781 29.519531 45.871094 27.226562 47.164062 25.089844 C 47.625 24.332031 48.085938 23.574219 48.539062 22.8125 C 49.507812 21.191406 50.378906 19.496094 51.824219 18.246094 C 53.578125 16.730469 55.574219 15.871094 57.851562 15.769531 C 60.589844 15.644531 63.023438 16.511719 65.0625 18.410156 C 67.664062 20.828125 68.789062 23.894531 68.433594 27.492188 C 68.164062 30.175781 67 32.425781 65.050781 34.199219 C 62.8125 36.234375 60.191406 37.160156 57.246094 36.722656 C 54.453125 36.308594 52.042969 35.050781 50.292969 32.644531 C 50.828125 31.707031 51.46875 30.839844 52.078125 29.949219 C 52.480469 30.632812 53.019531 31.191406 53.5625 31.746094 C 56.292969 34.535156 60.554688 34.550781 63.339844 31.820312 C 66.390625 28.832031 66.351562 23.671875 63.277344 20.714844 C 60.308594 17.855469 55.355469 18.160156 52.820312 21.433594 C 52.222656 22.203125 51.789062 23.074219 51.269531 23.894531 C 49.152344 27.21875 47.480469 30.847656 44.996094 33.925781 C 44.015625 34.78125 42.984375 35.546875 41.789062 36.046875 C 38.867188 37.269531 36.007812 37.03125 33.199219 35.648438 C 32.976562 35.5 32.757812 35.34375 32.535156 35.195312 C 30.511719 33.851562 29.140625 31.96875 28.320312 29.632812 C 28.277344 29.449219 28.234375 29.265625 28.1875 29.082031 C 26.816406 23.828125 29.460938 18.367188 34.355469 16.445312 C 37.132812 15.351562 39.867188 15.515625 42.519531 16.933594 "/></clipPath><clipPath id="819abd0511"><path d="M 46.226562 14.527344 L 69.761719 14.527344 L 69.761719 38.15625 L 46.226562 38.15625 Z M 46.226562 14.527344 "/></clipPath><clipPath id="94491c4b1d"><path d="M 50.292969 32.644531 C 52.042969 35.046875 54.453125 36.308594 57.246094 36.722656 C 60.191406 37.160156 62.816406 36.234375 65.050781 34.199219 C 67 32.421875 68.167969 30.171875 68.433594 27.492188 C 68.789062 23.890625 67.664062 20.824219 65.066406 18.410156 C 63.023438 16.511719 60.59375 15.644531 57.851562 15.765625 C 55.574219 15.867188 53.578125 16.726562 51.828125 18.246094 C 50.378906 19.496094 49.511719 21.191406 48.542969 22.8125 C 48.085938 23.574219 47.625 24.328125 47.167969 25.085938 C 46.855469 24.871094 46.546875 24.652344 46.234375 24.4375 C 46.613281 23.476562 47.222656 22.652344 47.734375 21.773438 C 48.558594 20.347656 49.34375 18.882812 50.539062 17.738281 C 52.375 15.972656 54.503906 14.890625 57.015625 14.613281 C 60.167969 14.269531 62.992188 15.09375 65.445312 17.15625 C 67.828125 19.152344 69.214844 21.757812 69.582031 24.941406 C 69.925781 27.910156 69.261719 30.625 67.613281 33.050781 C 65.835938 35.664062 63.414062 37.320312 60.371094 37.875 C 58.136719 38.285156 55.9375 38.054688 53.824219 37.117188 C 52.636719 36.589844 51.601562 35.847656 50.632812 34.988281 C 50.496094 34.867188 50.386719 34.707031 50.28125 34.558594 C 49.59375 33.585938 49.597656 33.585938 50.292969 32.644531 "/></clipPath><clipPath id="8eae9453c7"><path d="M 45 18.675781 L 65.613281 18.675781 L 65.613281 34.6875 L 45 34.6875 Z M 45 18.675781 "/></clipPath><clipPath id="9467b6acde"><path d="M 45 33.925781 C 47.480469 30.847656 49.152344 27.21875 51.269531 23.890625 C 51.789062 23.074219 52.222656 22.199219 52.820312 21.429688 C 55.359375 18.160156 60.308594 17.855469 63.277344 20.710938 C 66.351562 23.671875 66.394531 28.832031 63.34375 31.816406 C 60.554688 34.546875 56.292969 34.53125 53.5625 31.746094 C 53.019531 31.191406 52.484375 30.628906 52.078125 29.949219 C 52.683594 28.898438 52.679688 28.902344 53.371094 29.851562 C 54.660156 31.609375 56.332031 32.65625 58.488281 32.617188 C 60.140625 32.585938 61.53125 31.871094 62.714844 30.640625 C 64.464844 28.820312 64.9375 25.804688 63.792969 23.484375 C 61.871094 19.582031 56.8125 18.773438 53.96875 21.929688 C 53.089844 22.90625 52.53125 24.113281 51.859375 25.234375 C 50.359375 27.746094 48.878906 30.273438 47.367188 32.78125 C 46.964844 33.449219 46.53125 34.105469 45.921875 34.601562 C 45.613281 34.375 45.308594 34.148438 45 33.921875 "/></clipPath><clipPath id="53d984ed8e"><path d="M 26.550781 14.429688 L 43.140625 14.429688 L 43.140625 30.34375 L 26.550781 30.34375 Z M 26.550781 14.429688 "/></clipPath><clipPath id="3d5f48590a"><path d="M 42.519531 16.929688 C 39.867188 15.515625 37.128906 15.351562 34.355469 16.445312 C 29.460938 18.367188 26.816406 23.828125 28.191406 29.082031 C 28.238281 29.265625 28.277344 29.449219 28.320312 29.632812 C 27.933594 29.738281 27.765625 30.21875 27.339844 30.253906 C 26.597656 28.382812 26.460938 26.433594 26.78125 24.464844 C 27.613281 19.355469 31.117188 15.644531 36 14.691406 C 38.28125 14.246094 40.480469 14.570312 42.574219 15.640625 C 43.230469 15.976562 43.246094 16.03125 42.800781 16.640625 C 42.71875 16.75 42.613281 16.835938 42.519531 16.933594 "/></clipPath><clipPath id="19dc28441d"><path d="M 32.625 33.914062 L 45.9375 33.914062 L 45.9375 38.15625 L 32.625 38.15625 Z M 32.625 33.914062 "/></clipPath><clipPath id="2566802842"><path d="M 45 33.925781 C 45.304688 34.152344 45.613281 34.378906 45.917969 34.605469 C 44.613281 36 43.070312 37 41.277344 37.5625 C 38.464844 38.445312 35.726562 38.21875 33.070312 36.921875 C 32.933594 36.855469 32.789062 36.8125 32.699219 36.679688 C 32.761719 36.28125 33.179688 36.070312 33.199219 35.648438 C 36.007812 37.035156 38.867188 37.273438 41.789062 36.050781 C 42.984375 35.546875 44.019531 34.78125 45 33.929688 "/></clipPath><clipPath id="adc1700113"><path d="M 39.859375 24.363281 L 47.191406 24.363281 L 47.191406 33.527344 L 39.859375 33.527344 Z M 39.859375 24.363281 "/></clipPath><clipPath id="ba538e7aec"><path d="M 46.234375 24.4375 C 46.542969 24.652344 46.855469 24.871094 47.164062 25.085938 C 45.871094 27.222656 44.800781 29.519531 43.222656 31.457031 C 42.394531 32.46875 41.316406 33.148438 40.0625 33.492188 C 40.03125 33.097656 40.125 32.691406 39.949219 32.3125 C 41.203125 31.75 42.289062 30.960938 43.027344 29.746094 C 44.015625 28.125 44.96875 26.476562 45.941406 24.84375 C 46.027344 24.699219 46.136719 24.570312 46.234375 24.4375 "/></clipPath><clipPath id="5efe8244d5"><path d="M 27.320312 29.574219 L 33.207031 29.574219 L 33.207031 36.710938 L 27.320312 36.710938 Z M 27.320312 29.574219 "/></clipPath><clipPath id="4601720517"><path d="M 33.199219 35.648438 C 33.179688 36.070312 32.761719 36.28125 32.699219 36.679688 C 32.035156 36.433594 31.480469 35.992188 30.949219 35.539062 C 29.375 34.203125 28.140625 32.597656 27.417969 30.601562 C 27.378906 30.492188 27.363281 30.371094 27.335938 30.253906 C 27.765625 30.21875 27.933594 29.738281 28.320312 29.632812 C 29.140625 31.96875 30.511719 33.851562 32.535156 35.199219 C 32.757812 35.347656 32.976562 35.5 33.199219 35.648438 "/></clipPath><clipPath id="93e208c354"><path d="M 32.53125 18.769531 L 37.351562 18.769531 L 37.351562 22.628906 L 32.53125 22.628906 Z M 32.53125 18.769531 "/></clipPath><clipPath id="7b94966466"><path d="M 32.625 21.214844 C 33.863281 19.757812 35.417969 18.953125 37.273438 18.78125 C 37.273438 19.1875 37.273438 19.589844 37.273438 19.996094 C 35.523438 20.28125 34.097656 21.144531 33.007812 22.597656 C 32.734375 22.460938 32.820312 22.199219 32.804688 21.972656 C 32.785156 21.710938 32.859375 21.421875 32.625 21.214844 "/></clipPath><clipPath id="8d25016f65"><path d="M 35.617188 32.179688 L 40.148438 32.179688 L 40.148438 33.914062 L 35.617188 33.914062 Z M 35.617188 32.179688 "/></clipPath><clipPath id="ed4252ba6e"><path d="M 39.949219 32.3125 C 40.125 32.691406 40.03125 33.097656 40.0625 33.492188 C 38.601562 33.996094 37.140625 33.960938 35.6875 33.441406 C 35.6875 33.035156 35.6875 32.628906 35.6875 32.222656 C 36.199219 32.242188 36.667969 32.476562 37.175781 32.550781 C 38.125 32.691406 39.03125 32.480469 39.949219 32.3125 "/></clipPath><clipPath id="ee72ca2fd9"><path d="M 30.699219 22.628906 L 31.953125 22.628906 L 31.953125 29.671875 L 30.699219 29.671875 Z M 30.699219 22.628906 "/></clipPath><clipPath id="7565bdd64b"><path d="M 31.5 29.636719 C 30.507812 27.703125 30.492188 25.703125 31.160156 23.667969 C 31.273438 23.328125 31.378906 22.980469 31.609375 22.699219 C 31.8125 23.210938 31.679688 23.746094 31.703125 24.269531 C 31.722656 24.597656 31.695312 24.921875 31.914062 25.195312 C 31.910156 25.746094 31.90625 26.296875 31.902344 26.84375 C 31.667969 26.960938 31.714844 27.1875 31.710938 27.386719 C 31.707031 27.9375 31.710938 28.488281 31.710938 29.039062 C 31.710938 29.265625 31.71875 29.492188 31.503906 29.636719 "/></clipPath><clipPath id="41552e6d0f"><path d="M 32.433594 29.574219 L 35.714844 29.574219 L 35.714844 33.527344 L 32.433594 33.527344 Z M 32.433594 29.574219 "/></clipPath><clipPath id="7f62b0e78d"><path d="M 35.6875 32.222656 C 35.6875 32.628906 35.6875 33.039062 35.6875 33.441406 C 34.40625 33.035156 33.335938 32.292969 32.492188 31.207031 C 32.609375 30.875 32.605469 30.53125 32.609375 30.183594 C 32.609375 29.984375 32.558594 29.757812 32.792969 29.640625 C 33.375 30.609375 34.164062 31.351562 35.128906 31.886719 C 35.320312 31.992188 35.5 32.109375 35.6875 32.222656 "/></clipPath><clipPath id="a04a5eddd0"><path d="M 37.257812 18.675781 L 40.921875 18.675781 L 40.921875 20.410156 L 37.257812 20.410156 Z M 37.257812 18.675781 "/></clipPath><clipPath id="aae87c5f97"><path d="M 37.273438 19.996094 C 37.273438 19.589844 37.273438 19.1875 37.273438 18.78125 C 38.519531 18.660156 39.71875 18.8125 40.855469 19.386719 C 40.820312 19.484375 40.800781 19.585938 40.75 19.675781 C 40.359375 20.417969 40.351562 20.445312 39.578125 20.203125 C 38.816406 19.964844 38.042969 20.011719 37.273438 19.996094 "/></clipPath><clipPath id="07d2f7d5ae"><path d="M 31.566406 21.183594 L 33.011719 21.183594 L 33.011719 25.234375 L 31.566406 25.234375 Z M 31.566406 21.183594 "/></clipPath><clipPath id="6090d1d0fe"><path d="M 31.914062 25.195312 C 31.695312 24.921875 31.71875 24.597656 31.703125 24.269531 C 31.675781 23.746094 31.808594 23.210938 31.609375 22.699219 C 31.867188 22.144531 32.175781 21.625 32.625 21.214844 C 32.859375 21.421875 32.785156 21.710938 32.800781 21.972656 C 32.820312 22.199219 32.730469 22.464844 33.003906 22.597656 C 32.5 23.398438 32.152344 24.273438 31.910156 25.195312 "/></clipPath><clipPath id="c2bc3d09d8"><path d="M 31.46875 26.777344 L 32.820312 26.777344 L 32.820312 31.214844 L 31.46875 31.214844 Z M 31.46875 26.777344 "/></clipPath><clipPath id="57fbee1885"><path d="M 32.792969 29.640625 C 32.558594 29.757812 32.609375 29.984375 32.609375 30.183594 C 32.609375 30.53125 32.609375 30.875 32.492188 31.207031 C 32.050781 30.761719 31.726562 30.234375 31.503906 29.636719 C 31.71875 29.492188 31.710938 29.265625 31.710938 29.039062 C 31.710938 28.488281 31.707031 27.9375 31.710938 27.386719 C 31.714844 27.1875 31.667969 26.960938 31.902344 26.84375 C 31.917969 27.875 32.324219 28.769531 32.792969 29.640625 "/></clipPath><clipPath id="75694d3940"><path d="M 61.175781 29.574219 L 61.371094 29.574219 L 61.371094 29.765625 L 61.175781 29.765625 Z M 61.175781 29.574219 "/></clipPath><clipPath id="deb4299efc"><path d="M 61.273438 29.710938 C 61.300781 29.6875 61.332031 29.660156 61.359375 29.636719 C 61.332031 29.660156 61.300781 29.6875 61.273438 29.710938 "/></clipPath></defs><g id="fd4c75b845"><g clip-rule="nonzero" clip-path="url(#10dfbec38b)"><g clip-rule="nonzero" clip-path="url(#7f526d82f2)"><path style=" stroke:none;fill-rule:nonzero;fill:#0b2d11;fill-opacity:1;" d="M 26.066406 13.949219 L 70.246094 13.949219 L 70.246094 38.640625 L 26.066406 38.640625 Z M 26.066406 13.949219 "/></g></g><g clip-rule="nonzero" clip-path="url(#819abd0511)"><g clip-rule="nonzero" clip-path="url(#94491c4b1d)"><path style=" stroke:none;fill-rule:nonzero;fill:#ffcb28;fill-opacity:1;" d="M 26.066406 13.949219 L 70.246094 13.949219 L 70.246094 38.640625 L 26.066406 38.640625 Z M 26.066406 13.949219 "/></g></g><g clip-rule="nonzero" clip-path="url(#8eae9453c7)"><g clip-rule="nonzero" clip-path="url(#9467b6acde)"><path style=" stroke:none;fill-rule:nonzero;fill:#ffcb28;fill-opacity:1;" d="M 26.066406 13.949219 L 70.246094 13.949219 L 70.246094 38.640625 L 26.066406 38.640625 Z M 26.066406 13.949219 "/></g></g><g clip-rule="nonzero" clip-path="url(#53d984ed8e)"><g clip-rule="nonzero" clip-path="url(#3d5f48590a)"><path style=" stroke:none;fill-rule:nonzero;fill:#a1c8d4;fill-opacity:1;" d="M 26.066406 13.949219 L 70.246094 13.949219 L 70.246094 38.640625 L 26.066406 38.640625 Z M 26.066406 13.949219 "/></g></g><g clip-rule="nonzero" clip-path="url(#19dc28441d)"><g clip-rule="nonzero" clip-path="url(#2566802842)"><path style=" stroke:none;fill-rule:nonzero;fill:#a1c8d4;fill-opacity:1;" d="M 26.066406 13.949219 L 70.246094 13.949219 L 70.246094 38.640625 L 26.066406 38.640625 Z M 26.066406 13.949219 "/></g></g><g clip-rule="nonzero" clip-path="url(#adc1700113)"><g clip-rule="nonzero" clip-path="url(#ba538e7aec)"><path style=" stroke:none;fill-rule:nonzero;fill:#a1c8d4;fill-opacity:1;" d="M 26.066406 13.949219 L 70.246094 13.949219 L 70.246094 38.640625 L 26.066406 38.640625 Z M 26.066406 13.949219 "/></g></g><g clip-rule="nonzero" clip-path="url(#5efe8244d5)"><g clip-rule="nonzero" clip-path="url(#4601720517)"><path style=" stroke:none;fill-rule:nonzero;fill:#a1c8d4;fill-opacity:1;" d="M 26.066406 13.949219 L 70.246094 13.949219 L 70.246094 38.640625 L 26.066406 38.640625 Z M 26.066406 13.949219 "/></g></g><g clip-rule="nonzero" clip-path="url(#93e208c354)"><g clip-rule="nonzero" clip-path="url(#7b94966466)"><path style=" stroke:none;fill-rule:nonzero;fill:#a1c8d4;fill-opacity:1;" d="M 26.066406 13.949219 L 70.246094 13.949219 L 70.246094 38.640625 L 26.066406 38.640625 Z M 26.066406 13.949219 "/></g></g><g clip-rule="nonzero" clip-path="url(#8d25016f65)"><g clip-rule="nonzero" clip-path="url(#ed4252ba6e)"><path style=" stroke:none;fill-rule:nonzero;fill:#a1c8d4;fill-opacity:1;" d="M 26.066406 13.949219 L 70.246094 13.949219 L 70.246094 38.640625 L 26.066406 38.640625 Z M 26.066406 13.949219 "/></g></g><g clip-rule="nonzero" clip-path="url(#ee72ca2fd9)"><g clip-rule="nonzero" clip-path="url(#7565bdd64b)"><path style=" stroke:none;fill-rule:nonzero;fill:#a1c8d4;fill-opacity:1;" d="M 26.066406 13.949219 L 70.246094 13.949219 L 70.246094 38.640625 L 26.066406 38.640625 Z M 26.066406 13.949219 "/></g></g><g clip-rule="nonzero" clip-path="url(#41552e6d0f)"><g clip-rule="nonzero" clip-path="url(#7f62b0e78d)"><path style=" stroke:none;fill-rule:nonzero;fill:#a1c8d4;fill-opacity:1;" d="M 26.066406 13.949219 L 70.246094 13.949219 L 70.246094 38.640625 L 26.066406 38.640625 Z M 26.066406 13.949219 "/></g></g><g clip-rule="nonzero" clip-path="url(#a04a5eddd0)"><g clip-rule="nonzero" clip-path="url(#aae87c5f97)"><path style=" stroke:none;fill-rule:nonzero;fill:#a1c8d4;fill-opacity:1;" d="M 26.066406 13.949219 L 70.246094 13.949219 L 70.246094 38.640625 L 26.066406 38.640625 Z M 26.066406 13.949219 "/></g></g><g clip-rule="nonzero" clip-path="url(#07d2f7d5ae)"><g clip-rule="nonzero" clip-path="url(#6090d1d0fe)"><path style=" stroke:none;fill-rule:nonzero;fill:#a1c8d4;fill-opacity:1;" d="M 26.066406 13.949219 L 70.246094 13.949219 L 70.246094 38.640625 L 26.066406 38.640625 Z M 26.066406 13.949219 "/></g></g><g clip-rule="nonzero" clip-path="url(#c2bc3d09d8)"><g clip-rule="nonzero" clip-path="url(#57fbee1885)"><path style=" stroke:none;fill-rule:nonzero;fill:#a1c8d4;fill-opacity:1;" d="M 26.066406 13.949219 L 70.246094 13.949219 L 70.246094 38.640625 L 26.066406 38.640625 Z M 26.066406 13.949219 "/></g></g><g clip-rule="nonzero" clip-path="url(#75694d3940)"><g clip-rule="nonzero" clip-path="url(#deb4299efc)"><path style=" stroke:none;fill-rule:nonzero;fill:#9a9999;fill-opacity:1;" d="M 26.066406 13.949219 L 70.246094 13.949219 L 70.246094 38.640625 L 26.066406 38.640625 Z M 26.066406 13.949219 "/></g></g><g style="fill:#0b2d11;fill-opacity:1;"><g transform="translate(10.967982, 36.565222)"><path style="stroke:none" d="M 13.234375 -12.078125 L 13.234375 -9.828125 L 5.078125 -9.828125 L 5.078125 -2.265625 L 14.15625 -2.265625 L 14.15625 0 L 2.359375 0 L 2.359375 -20.984375 L 13.6875 -20.984375 L 13.6875 -18.703125 L 5.078125 -18.703125 L 5.078125 -12.078125 Z M 13.234375 -12.078125 "/></g></g><g style="fill:#00a868;fill-opacity:1;"><g transform="translate(70.220481, 36.051931)"><path style="stroke:none" d="M 18.125 -10.890625 L 18.125 -0.921875 C 17.53125 -0.710938 16.671875 -0.46875 15.546875 -0.1875 C 14.421875 0.0820312 13.160156 0.21875 11.765625 0.21875 C 10.203125 0.21875 8.773438 0.00390625 7.484375 -0.421875 C 6.191406 -0.859375 5.03125 -1.5625 4 -2.53125 C 3.113281 -3.382812 2.410156 -4.476562 1.890625 -5.8125 C 1.367188 -7.144531 1.109375 -8.625 1.109375 -10.25 C 1.128906 -12.320312 1.585938 -14.160156 2.484375 -15.765625 C 3.390625 -17.378906 4.675781 -18.648438 6.34375 -19.578125 C 8.019531 -20.503906 10.019531 -20.96875 12.34375 -20.96875 C 13.550781 -20.96875 14.601562 -20.863281 15.5 -20.65625 C 16.394531 -20.445312 17.066406 -20.234375 17.515625 -20.015625 L 16.875 -17.828125 C 16.3125 -18.066406 15.664062 -18.273438 14.9375 -18.453125 C 14.21875 -18.628906 13.332031 -18.71875 12.28125 -18.71875 C 10.59375 -18.71875 9.125 -18.382812 7.875 -17.71875 C 6.625 -17.050781 5.65625 -16.09375 4.96875 -14.84375 C 4.28125 -13.601562 3.9375 -12.113281 3.9375 -10.375 C 3.9375 -8.625 4.269531 -7.125 4.9375 -5.875 C 5.601562 -4.625 6.535156 -3.664062 7.734375 -3 C 8.941406 -2.332031 10.34375 -2 11.9375 -2 C 12.820312 -2 13.5625 -2.054688 14.15625 -2.171875 C 14.75 -2.285156 15.203125 -2.414062 15.515625 -2.5625 L 15.515625 -8.734375 L 11.296875 -8.734375 L 11.296875 -10.890625 Z M 18.125 -10.890625 "/></g></g><g style="fill:#00a868;fill-opacity:1;"><g transform="translate(90.108345, 36.051931)"><path style="stroke:none" d="M 13.078125 -11.9375 L 13.078125 -9.734375 L 5.015625 -9.734375 L 5.015625 -2.25 L 14 -2.25 L 14 0 L 2.34375 0 L 2.34375 -20.75 L 13.546875 -20.75 L 13.546875 -18.5 L 5.015625 -18.5 L 5.015625 -11.9375 Z M 13.078125 -11.9375 "/></g></g><g style="fill:#00a868;fill-opacity:1;"><g transform="translate(105.255141, 36.051931)"><path style="stroke:none" d="M 4.859375 0 L 2.34375 0 L 2.34375 -20.75 L 5.265625 -20.75 L 11.90625 -10.25 C 12.6875 -9.039062 13.378906 -7.878906 13.984375 -6.765625 C 14.585938 -5.660156 15.140625 -4.578125 15.640625 -3.515625 L 15.703125 -3.546875 C 15.578125 -4.941406 15.492188 -6.304688 15.453125 -7.640625 C 15.410156 -8.972656 15.390625 -10.445312 15.390625 -12.0625 L 15.390625 -20.75 L 17.921875 -20.75 L 17.921875 0 L 15.203125 0 L 8.625 -10.53125 C 7.90625 -11.675781 7.210938 -12.832031 6.546875 -14 C 5.878906 -15.175781 5.273438 -16.328125 4.734375 -17.453125 L 4.640625 -17.421875 C 4.722656 -16.109375 4.78125 -14.785156 4.8125 -13.453125 C 4.84375 -12.117188 4.859375 -10.585938 4.859375 -8.859375 Z M 4.859375 0 "/></g></g><g style="fill:#00a868;fill-opacity:1;"><g transform="translate(125.512437, 36.051931)"><path style="stroke:none" d="M 13.078125 -11.9375 L 13.078125 -9.734375 L 5.015625 -9.734375 L 5.015625 -2.25 L 14 -2.25 L 14 0 L 2.34375 0 L 2.34375 -20.75 L 13.546875 -20.75 L 13.546875 -18.5 L 5.015625 -18.5 L 5.015625 -11.9375 Z M 13.078125 -11.9375 "/></g></g><g style="fill:#00a868;fill-opacity:1;"><g transform="translate(140.659233, 36.051931)"><path style="stroke:none" d="M 2.34375 0 L 2.34375 -20.46875 C 3.019531 -20.613281 3.8125 -20.722656 4.71875 -20.796875 C 5.632812 -20.867188 6.554688 -20.90625 7.484375 -20.90625 C 8.921875 -20.90625 10.117188 -20.769531 11.078125 -20.5 C 12.046875 -20.226562 12.847656 -19.796875 13.484375 -19.203125 C 14.566406 -18.242188 15.109375 -16.929688 15.109375 -15.265625 C 15.109375 -13.890625 14.726562 -12.753906 13.96875 -11.859375 C 13.207031 -10.972656 12.285156 -10.34375 11.203125 -9.96875 L 11.203125 -9.875 C 12.003906 -9.613281 12.648438 -9.125 13.140625 -8.40625 C 13.628906 -7.6875 14 -6.78125 14.25 -5.6875 C 14.601562 -4.257812 14.90625 -3.054688 15.15625 -2.078125 C 15.414062 -1.097656 15.648438 -0.40625 15.859375 0 L 13.078125 0 C 12.910156 -0.289062 12.707031 -0.863281 12.46875 -1.71875 C 12.238281 -2.582031 11.984375 -3.660156 11.703125 -4.953125 C 11.390625 -6.390625 10.921875 -7.410156 10.296875 -8.015625 C 9.671875 -8.617188 8.753906 -8.941406 7.546875 -8.984375 L 5.015625 -8.984375 L 5.015625 0 Z M 5.015625 -18.59375 L 5.015625 -11.015625 L 7.75 -11.015625 C 9.1875 -11.015625 10.328125 -11.375 11.171875 -12.09375 C 12.015625 -12.8125 12.4375 -13.765625 12.4375 -14.953125 C 12.4375 -16.285156 11.992188 -17.257812 11.109375 -17.875 C 10.222656 -18.5 9.078125 -18.820312 7.671875 -18.84375 C 7.023438 -18.84375 6.476562 -18.816406 6.03125 -18.765625 C 5.582031 -18.710938 5.242188 -18.65625 5.015625 -18.59375 Z M 5.015625 -18.59375 "/></g></g><g style="fill:#00a868;fill-opacity:1;"><g transform="translate(157.22219, 36.051931)"><path style="stroke:none" d="M 13.046875 -6.53125 L 5.6875 -6.53125 L 3.546875 0 L 0.765625 0 L 7.8125 -20.75 L 11.046875 -20.75 L 18.125 0 L 15.265625 0 Z M 6.25 -8.625 L 12.5 -8.625 L 10.46875 -14.59375 C 10.238281 -15.269531 10.039062 -15.921875 9.875 -16.546875 C 9.71875 -17.171875 9.554688 -17.78125 9.390625 -18.375 L 9.328125 -18.375 C 9.179688 -17.757812 9.019531 -17.140625 8.84375 -16.515625 C 8.675781 -15.890625 8.488281 -15.257812 8.28125 -14.625 Z M 6.25 -8.625 "/></g></g><g style="fill:#00a868;fill-opacity:1;"><g transform="translate(176.063331, 36.051931)"><path style="stroke:none" d="M 6.28125 0 L 6.28125 -18.46875 L -0.03125 -18.46875 L -0.03125 -20.75 L 15.328125 -20.75 L 15.328125 -18.46875 L 8.984375 -18.46875 L 8.984375 0 Z M 6.28125 0 "/></g></g><g style="fill:#00a868;fill-opacity:1;"><g transform="translate(191.364053, 36.051931)"><path style="stroke:none" d="M 2.34375 -20.75 L 5.015625 -20.75 L 5.015625 0 L 2.34375 0 Z M 2.34375 -20.75 "/></g></g><g style="fill:#00a868;fill-opacity:1;"><g transform="translate(198.721948, 36.051931)"><path style="stroke:none" d="M 10.75 -21.078125 C 12.632812 -21.078125 14.273438 -20.628906 15.671875 -19.734375 C 17.066406 -18.847656 18.144531 -17.613281 18.90625 -16.03125 C 19.675781 -14.457031 20.0625 -12.644531 20.0625 -10.59375 C 20.0625 -8.207031 19.625 -6.203125 18.75 -4.578125 C 17.882812 -2.960938 16.722656 -1.738281 15.265625 -0.90625 C 13.804688 -0.0703125 12.195312 0.34375 10.4375 0.34375 C 8.613281 0.34375 7 -0.0976562 5.59375 -0.984375 C 4.1875 -1.867188 3.085938 -3.097656 2.296875 -4.671875 C 1.503906 -6.253906 1.109375 -8.09375 1.109375 -10.1875 C 1.109375 -12.382812 1.519531 -14.296875 2.34375 -15.921875 C 3.175781 -17.554688 4.320312 -18.820312 5.78125 -19.71875 C 7.238281 -20.625 8.894531 -21.078125 10.75 -21.078125 Z M 10.625 -18.90625 C 9.144531 -18.90625 7.910156 -18.5 6.921875 -17.6875 C 5.941406 -16.875 5.203125 -15.8125 4.703125 -14.5 C 4.210938 -13.1875 3.96875 -11.769531 3.96875 -10.25 C 3.96875 -8.769531 4.222656 -7.394531 4.734375 -6.125 C 5.253906 -4.851562 6.007812 -3.820312 7 -3.03125 C 8 -2.238281 9.195312 -1.84375 10.59375 -1.84375 C 12.007812 -1.84375 13.210938 -2.234375 14.203125 -3.015625 C 15.203125 -3.796875 15.957031 -4.84375 16.46875 -6.15625 C 16.976562 -7.46875 17.234375 -8.90625 17.234375 -10.46875 C 17.234375 -11.488281 17.097656 -12.5 16.828125 -13.5 C 16.566406 -14.507812 16.160156 -15.421875 15.609375 -16.234375 C 15.054688 -17.046875 14.363281 -17.691406 13.53125 -18.171875 C 12.695312 -18.660156 11.726562 -18.90625 10.625 -18.90625 Z M 10.625 -18.90625 "/></g></g><g style="fill:#00a868;fill-opacity:1;"><g transform="translate(219.93362, 36.051931)"><path style="stroke:none" d="M 4.859375 0 L 2.34375 0 L 2.34375 -20.75 L 5.265625 -20.75 L 11.90625 -10.25 C 12.6875 -9.039062 13.378906 -7.878906 13.984375 -6.765625 C 14.585938 -5.660156 15.140625 -4.578125 15.640625 -3.515625 L 15.703125 -3.546875 C 15.578125 -4.941406 15.492188 -6.304688 15.453125 -7.640625 C 15.410156 -8.972656 15.390625 -10.445312 15.390625 -12.0625 L 15.390625 -20.75 L 17.921875 -20.75 L 17.921875 0 L 15.203125 0 L 8.625 -10.53125 C 7.90625 -11.675781 7.210938 -12.832031 6.546875 -14 C 5.878906 -15.175781 5.273438 -16.328125 4.734375 -17.453125 L 4.640625 -17.421875 C 4.722656 -16.109375 4.78125 -14.785156 4.8125 -13.453125 C 4.84375 -12.117188 4.859375 -10.585938 4.859375 -8.859375 Z M 4.859375 0 "/></g></g></g></svg>