<svg xmlns="http://www.w3.org/2000/svg" xmlns:xlink="http://www.w3.org/1999/xlink" width="1920" zoomAndPan="magnify" viewBox="0 0 1440 809.999993" height="1080" preserveAspectRatio="xMidYMid meet" version="1.0"><defs><clipPath id="c1ad6e6e5a"><path d="M 605.652344 289.351562 L 835.902344 289.351562 L 835.902344 519.601562 L 605.652344 519.601562 Z M 605.652344 289.351562 " clip-rule="nonzero"/></clipPath><clipPath id="df754be7c4"><path d="M 606.214844 415.679688 L 614.800781 415.679688 L 614.800781 424.546875 L 606.214844 424.546875 Z M 606.214844 415.679688 " clip-rule="nonzero"/></clipPath><clipPath id="7f9a607efc"><path d="M 614.773438 418.800781 C 614.625 422.023438 613.5 423.75 612.375 424.273438 C 611.25 424.726562 609.148438 424.425781 608.175781 423.976562 C 607.425781 423.675781 606.976562 423.226562 606.675781 422.476562 C 606.226562 421.5 606.074219 419.324219 606.375 418.273438 C 606.601562 417.523438 607.199219 417 607.726562 416.625 C 608.25 416.175781 608.925781 415.800781 609.675781 415.726562 C 610.800781 415.648438 613.648438 417 613.648438 417 " clip-rule="nonzero"/></clipPath><clipPath id="857d434b51"><path d="M 0.214844 0.679688 L 8.800781 0.679688 L 8.800781 9.546875 L 0.214844 9.546875 Z M 0.214844 0.679688 " clip-rule="nonzero"/></clipPath><clipPath id="3861b13a3f"><path d="M 8.773438 3.800781 C 8.625 7.023438 7.5 8.75 6.375 9.273438 C 5.25 9.726562 3.148438 9.425781 2.175781 8.976562 C 1.425781 8.675781 0.976562 8.226562 0.675781 7.476562 C 0.226562 6.5 0.0742188 4.324219 0.375 3.273438 C 0.601562 2.523438 1.199219 2 1.726562 1.625 C 2.25 1.175781 2.925781 0.800781 3.675781 0.726562 C 4.800781 0.648438 7.648438 2 7.648438 2 " clip-rule="nonzero"/></clipPath><clipPath id="001a56b4e3"><rect x="0" width="9" y="0" height="10"/></clipPath><clipPath id="ef706a8d0a"><path d="M 606.214844 408.480469 L 614.800781 408.480469 L 614.800781 417.347656 L 606.214844 417.347656 Z M 606.214844 408.480469 " clip-rule="nonzero"/></clipPath><clipPath id="dfdfb6ec8a"><path d="M 614.773438 411.601562 C 614.625 414.824219 613.5 416.550781 612.375 417.074219 C 611.25 417.523438 609.148438 417.226562 608.175781 416.773438 C 607.425781 416.476562 606.976562 416.023438 606.675781 415.273438 C 606.226562 414.300781 606.074219 412.125 606.375 411.074219 C 606.601562 410.324219 607.199219 409.800781 607.726562 409.425781 C 608.25 408.976562 608.925781 408.601562 609.675781 408.523438 C 610.800781 408.449219 613.648438 409.800781 613.648438 409.800781 " clip-rule="nonzero"/></clipPath><clipPath id="50054ab7f6"><path d="M 0.214844 0.480469 L 8.800781 0.480469 L 8.800781 9.347656 L 0.214844 9.347656 Z M 0.214844 0.480469 " clip-rule="nonzero"/></clipPath><clipPath id="21c7a0aebb"><path d="M 8.773438 3.601562 C 8.625 6.824219 7.5 8.550781 6.375 9.074219 C 5.25 9.523438 3.148438 9.226562 2.175781 8.773438 C 1.425781 8.476562 0.976562 8.023438 0.675781 7.273438 C 0.226562 6.300781 0.0742188 4.125 0.375 3.074219 C 0.601562 2.324219 1.199219 1.800781 1.726562 1.425781 C 2.25 0.976562 2.925781 0.601562 3.675781 0.523438 C 4.800781 0.449219 7.648438 1.800781 7.648438 1.800781 " clip-rule="nonzero"/></clipPath><clipPath id="2b033d6d88"><rect x="0" width="9" y="0" height="10"/></clipPath><clipPath id="ac4ecc0f67"><path d="M 817.386719 355.199219 L 825.992188 355.199219 L 825.992188 363.917969 L 817.386719 363.917969 Z M 817.386719 355.199219 " clip-rule="nonzero"/></clipPath><clipPath id="6e76d7499a"><path d="M 825.976562 358.199219 C 825.824219 361.425781 824.699219 363.148438 823.574219 363.675781 C 822.449219 364.125 820.351562 363.824219 819.375 363.375 C 818.625 363.074219 818.175781 362.625 817.875 361.875 C 817.425781 360.898438 817.273438 358.726562 817.574219 357.675781 C 817.800781 356.925781 818.25 356.398438 818.925781 356.023438 C 819.824219 355.425781 822 355.050781 823.050781 355.273438 C 823.800781 355.425781 824.851562 356.398438 824.851562 356.398438 " clip-rule="nonzero"/></clipPath><clipPath id="8e419b51f7"><path d="M 0.386719 0.199219 L 8.992188 0.199219 L 8.992188 8.917969 L 0.386719 8.917969 Z M 0.386719 0.199219 " clip-rule="nonzero"/></clipPath><clipPath id="6474bd2703"><path d="M 8.976562 3.199219 C 8.824219 6.425781 7.699219 8.148438 6.574219 8.675781 C 5.449219 9.125 3.351562 8.824219 2.375 8.375 C 1.625 8.074219 1.175781 7.625 0.875 6.875 C 0.425781 5.898438 0.273438 3.726562 0.574219 2.675781 C 0.800781 1.925781 1.25 1.398438 1.925781 1.023438 C 2.824219 0.425781 5 0.0507812 6.050781 0.273438 C 6.800781 0.425781 7.851562 1.398438 7.851562 1.398438 " clip-rule="nonzero"/></clipPath><clipPath id="66c3c89e11"><rect x="0" width="9" y="0" height="9"/></clipPath></defs><g clip-path="url(#c1ad6e6e5a)"><path fill="#000000" d="M 720.785156 519.605469 C 657.304688 519.605469 605.652344 467.964844 605.652344 404.480469 C 605.652344 341 657.304688 289.351562 720.785156 289.351562 C 784.265625 289.351562 835.917969 341 835.917969 404.480469 C 835.917969 467.964844 784.265625 519.605469 720.785156 519.605469 Z M 720.785156 298.941406 C 662.59375 298.941406 615.246094 346.285156 615.246094 404.480469 C 615.246094 462.679688 662.585938 510.023438 720.785156 510.023438 C 778.984375 510.023438 826.324219 462.679688 826.324219 404.480469 C 826.324219 346.285156 778.976562 298.941406 720.785156 298.941406 Z M 720.785156 298.941406 " fill-opacity="1" fill-rule="nonzero"/></g><path fill="#000000" d="M 721.339844 438.058594 C 692.550781 438.058594 669.121094 414.390625 669.121094 385.296875 C 669.121094 356.203125 692.542969 332.527344 721.339844 332.527344 C 750.132812 332.527344 773.554688 356.203125 773.554688 385.296875 C 773.554688 414.390625 750.125 438.058594 721.339844 438.058594 Z M 721.339844 342.121094 C 697.839844 342.121094 678.71875 361.484375 678.71875 385.296875 C 678.71875 409.101562 697.839844 428.46875 721.339844 428.46875 C 744.84375 428.46875 763.960938 409.101562 763.960938 385.296875 C 763.957031 361.484375 744.84375 342.121094 721.339844 342.121094 Z M 721.339844 342.121094 " fill-opacity="1" fill-rule="nonzero"/><path fill="#000000" d="M 793.015625 490.828125 C 791.152344 490.828125 789.382812 489.738281 788.605469 487.921875 C 777.046875 460.96875 749.828125 442.859375 720.871094 442.859375 C 691.921875 442.859375 664.703125 460.96875 653.148438 487.921875 C 652.101562 490.351562 649.277344 491.480469 646.84375 490.441406 C 644.414062 489.394531 643.285156 486.570312 644.328125 484.136719 C 657.375 453.707031 688.140625 433.265625 720.871094 433.265625 C 753.613281 433.265625 784.382812 453.714844 797.425781 484.136719 C 798.472656 486.570312 797.339844 489.394531 794.90625 490.441406 C 794.285156 490.707031 793.640625 490.828125 793.015625 490.828125 Z M 793.015625 490.828125 " fill-opacity="1" fill-rule="nonzero"/><g clip-path="url(#df754be7c4)"><g clip-path="url(#7f9a607efc)"><g transform="matrix(1, 0, 0, 1, 606, 415)"><g clip-path="url(#001a56b4e3)"><g clip-path="url(#857d434b51)"><g clip-path="url(#3861b13a3f)"><rect x="-922.8" width="2073.6" fill="#1e1e1e" height="1166.39999" y="-593.199998" fill-opacity="1"/></g></g></g></g></g></g><g clip-path="url(#ef706a8d0a)"><g clip-path="url(#dfdfb6ec8a)"><g transform="matrix(1, 0, 0, 1, 606, 408)"><g clip-path="url(#2b033d6d88)"><g clip-path="url(#50054ab7f6)"><g clip-path="url(#21c7a0aebb)"><rect x="-922.8" width="2073.6" fill="#1e1e1e" height="1166.39999" y="-586.199998" fill-opacity="1"/></g></g></g></g></g></g><g clip-path="url(#ac4ecc0f67)"><g clip-path="url(#6e76d7499a)"><g transform="matrix(1, 0, 0, 1, 817, 355)"><g clip-path="url(#66c3c89e11)"><g clip-path="url(#8e419b51f7)"><g clip-path="url(#6474bd2703)"><rect x="-1133.8" width="2073.6" fill="#1e1e1e" height="1166.39999" y="-533.199998" fill-opacity="1"/></g></g></g></g></g></g></svg>